<?xml version="1.0" encoding="utf-8"?>
<!-- Generator: Adobe Illustrator 27.0.1, SVG Export Plug-In . SVG Version: 6.00 Build 0)  -->
<svg version="1.1" id="Layer_1" xmlns="http://www.w3.org/2000/svg" xmlns:xlink="http://www.w3.org/1999/xlink" x="0px" y="0px"
	 viewBox="0 0 652.5 1080" style="enable-background:new 0 0 652.5 1080;" xml:space="preserve">
<style type="text/css">
	.st0{fill:#FFFFFF;}
</style>
<g>
	<g>
		<path class="st0" d="M101.9,1020.9c-0.1,1.4-0.2,2.7-0.6,3.9c-0.1,0.2-0.2,0.2-0.3,0.2c-0.1,0-0.2-0.1-0.2-0.2
			c-0.4-1.9-1.3-3.1-2.6-3.8c-1.3-0.6-2.8-0.9-4.5-0.9h-7.1v34.8c0,1.6,0.5,2.9,1.5,4c1,1.1,2.2,1.8,3.7,2c0.2,0.1,0.2,0.2,0.2,0.4
			c0,0.2-0.1,0.3-0.3,0.3c-1.4-0.1-2.8-0.2-4.1-0.3s-2.7-0.1-4.1-0.1c-1.1,0-2.1,0-3.2,0.1c-1,0.1-2.1,0.1-3.2,0.2
			c-0.2,0.1-0.3,0-0.3-0.2c0-0.2,0-0.3,0.2-0.4c0.9-0.2,1.6-0.4,2.1-0.7c0.5-0.2,0.9-0.6,1.2-0.9c0.3-0.4,0.4-0.9,0.5-1.5
			c0.1-0.6,0.1-1.4,0.1-2.3v-35.2h-9.7c-1.3,0-2.4,0.4-3.4,1.3c-1,0.9-1.7,1.9-2.1,3c-0.1,0.2-0.2,0.2-0.3,0.2
			c-0.2-0.1-0.2-0.2-0.2-0.3l-0.2-1.1c0-0.9,0.1-1.7,0.3-2.5c0.2-0.8,0.4-1.6,0.6-2.3c0.1-0.4,0.2-0.7,0.3-1.1
			c0.1-0.3,0.2-0.7,0.3-1.1c0.1-0.3,0.3-0.3,0.5-0.2c0.8,0.5,1.6,0.9,2.5,1c0.8,0.1,1.7,0.2,2.7,0.2h25.9c0.6,0,1.4-0.1,2.3-0.4
			c0.2-0.1,0.4-0.1,0.6-0.2c0.2-0.1,0.3-0.1,0.6-0.2l0.4,0.3C102,1018.2,102,1019.5,101.9,1020.9z"/>
		<path class="st0" d="M159.4,1061.7c-2.9-0.2-5.7-0.2-8.5-0.2c-1,0-2,0-3,0c-1,0-2,0.1-3.1,0.1c-0.2,0-0.3-0.1-0.3-0.3
			c0-0.2,0-0.3,0.2-0.4c1.7-0.5,2.8-1.1,3.2-1.9c0.5-0.8,0.7-2.1,0.7-3.8v-16.9h-24.9v17c0,3.4,1.8,5.3,5.3,5.6
			c0.2,0,0.2,0.1,0.2,0.3c0,0.2-0.1,0.3-0.2,0.3c-0.9,0-1.7,0-2.5,0c-0.8,0-1.6,0-2.4,0.1c-0.6,0-1.3,0-2.1,0c-0.8,0-1.5,0-2.1,0
			c-0.6,0-1.3,0-2,0c-0.7,0-1.4,0-2.1-0.1c-0.2,0-0.5,0-0.8,0c-0.3,0-0.6,0-0.8,0c-0.2,0-0.3-0.1-0.3-0.3c0-0.2,0-0.3,0.2-0.4
			c0.9-0.2,1.6-0.3,2.1-0.5c0.5-0.2,0.9-0.5,1.2-0.8c0.3-0.4,0.4-0.8,0.5-1.3c0.1-0.5,0.1-1.2,0.1-2.1v-34.5c0-1.2-0.5-2.1-1.4-2.7
			c-0.9-0.6-2-0.9-3-1v-0.6c2.3,0.2,4.5,0.2,6.7,0.2c0.9,0,1.8,0,2.8,0c0.9,0,1.8,0,2.8,0h1.7c0.2,0,0.2,0.1,0.2,0.3
			c0,0.2-0.1,0.3-0.2,0.3c-1,0-1.9,0.3-2.6,0.9c-0.8,0.6-1.2,1.4-1.2,2.5v14.1h24.8v-13.8c0-1.3-0.3-2.1-1-2.5
			c-0.7-0.4-1.5-0.7-2.5-0.9c-0.2-0.1-0.4-0.1-0.6-0.2c-0.2-0.1-0.4-0.1-0.6-0.2c-0.2-0.1-0.2-0.2-0.2-0.4c0-0.2,0.1-0.3,0.3-0.3
			c2.6,0.2,5.1,0.2,7.5,0.2c1.1,0,2.2,0,3.3,0c1.1,0,2.2-0.1,3.3-0.1c0.2,0,0.3,0.1,0.3,0.3c0,0.2,0,0.3-0.2,0.4
			c-1.2,0.2-2.1,0.5-2.8,0.9c-0.7,0.4-1.1,1.3-1.1,2.6v33.2c0,1.8,0.4,3.2,1.2,4.1c0.8,0.9,2.1,1.5,4,1.9L159.4,1061.7z"/>
		<path class="st0" d="M197,1057.3c-0.2,1.2-0.3,2.4-0.5,3.6c0,0.2-0.1,0.2-0.3,0.2l-0.1,0.1c-0.4,0.2-0.8,0.2-1.1,0.2
			c-1.2,0-2.5,0-3.8,0c-1.3,0-2.5,0-3.8,0c-1.1,0-2.1,0-3.2,0c-1,0-2.1,0-3.2,0c-1.5,0-2.9,0-4.4,0c-1.5,0-3,0.1-4.4,0.1v-0.6
			c0.8,0,1.5-0.2,2-0.5c0.5-0.4,0.9-0.8,1.2-1.3c0.3-0.5,0.4-1.1,0.5-1.8c0.1-0.7,0.1-1.4,0.1-2.1v-33.7c0-1.1-0.3-1.8-0.8-2.1
			c-0.5-0.3-1.1-0.6-1.7-0.8c-0.3-0.1-0.7-0.2-1.1-0.4c-0.4-0.1-0.8-0.3-1.3-0.6c-0.1-0.1-0.1-0.2-0.1-0.4c0-0.1,0.1-0.2,0.3-0.2
			h23.1c0.2-0.1,0.4-0.2,0.7-0.3c0.2-0.1,0.5-0.2,0.7-0.3c0.3-0.1,0.4,0,0.4,0.3c-0.2,1.4-0.4,2.7-0.6,3.9c-0.2,1.2-0.5,2.4-0.8,3.7
			c-0.1,0.2-0.2,0.2-0.4,0.2c-0.2,0-0.3-0.1-0.3-0.3c-0.1-1.9-0.8-3.1-1.9-3.7c-1.2-0.6-2.6-0.9-4.4-0.9h-6.4v16.6h9.4
			c0.3,0,0.6-0.1,1.1-0.2c0.4-0.2,0.9-0.3,1.3-0.5c0.6-0.3,1.2-0.6,1.8-0.7c0.3-0.1,0.4,0,0.4,0.3c-0.1,0.6-0.1,1.4-0.2,2.1
			c-0.1,0.8-0.2,1.5-0.3,2.1c-0.1,0.6-0.2,1.3-0.2,2s-0.1,1.4-0.2,2c0,0.2-0.1,0.3-0.2,0.3c-0.1,0.1-0.3,0-0.4-0.1
			c-0.3-0.3-0.4-0.5-0.5-0.8c-0.1-0.3-0.2-0.6-0.3-0.9c-0.1-0.3-0.2-0.6-0.3-1c-0.1-0.3-0.3-0.6-0.6-0.9c-0.3-0.3-0.8-0.5-1.5-0.6
			c-0.7-0.1-1.5-0.2-2.4-0.3c-0.8-0.1-1.7-0.1-2.5-0.1s-1.4,0-1.9,0h-2.4v16.7c0.8,1.2,2,2.1,3.4,2.7c1.5,0.6,2.9,0.9,4.3,0.9
			c1.9,0,3.5-0.5,4.8-1.5c1.3-1,2.2-2.4,2.6-4.3l0.6,0.2C197.3,1055,197.1,1056.2,197,1057.3z"/>
		<path class="st0" d="M295.6,1018.8c-0.7,0.5-1.3,0.9-1.7,1.4c-0.4,0.5-0.9,1.5-1.4,3c-0.6,1.5-1.2,3.4-1.8,5.5
			c-0.6,2.1-1.3,4.5-2,7.1c-0.7,2.6-1.4,5.1-2.1,7.7c-0.5,2-1.1,3.9-1.6,5.8c-0.5,1.9-1,3.7-1.5,5.3c-0.5,1.7-0.9,3.1-1.3,4.4
			c-0.4,1.3-0.8,2.4-1.1,3.2c-0.1,0.1-0.2,0.2-0.3,0.2c-0.1,0-0.3,0-0.4-0.1c-1.9-3.6-3.6-7.4-5-11.4c-1.4-3.9-2.8-7.9-4.2-12
			c-0.7-2.1-1.3-4-1.9-5.7c-0.6-1.8-1.2-3.6-2-5.6c-1.1,2.6-2.2,5.3-3.2,8c-1,2.7-2.1,5.4-3.1,8.1c-1.1,3-2.3,6.1-3.5,9.3
			c-1.2,3.2-2.5,6.3-3.8,9.2c-0.1,0.2-0.2,0.2-0.4,0.2c-0.1,0-0.2-0.1-0.3-0.3c-0.7-2.2-1.4-4.8-2-7.7c-0.6-2.9-1.3-5.9-1.9-9
			c-0.9-4.5-1.9-8.9-3-13.2c-1.1-4.2-2.2-7.7-3.5-10.3c-0.6-1.2-1.2-2-1.7-2.4c-0.6-0.4-1.3-0.9-2.1-1.4c-0.2-0.1-0.4-0.2-0.7-0.4
			c-0.2-0.1-0.5-0.3-0.8-0.4c-0.2-0.1-0.2-0.2-0.1-0.4c0.1-0.2,0.2-0.2,0.4-0.2c0.3,0.1,0.5,0.1,0.7,0.1c0.2,0,0.5,0,0.7,0.1
			c1.1,0.1,2.2,0.2,3.3,0.4c1.1,0.1,2.1,0.2,3.3,0.2c2.1,0,4.3-0.2,6.6-0.5c0.2-0.1,0.3,0,0.3,0.2c0.1,0.2,0,0.4-0.2,0.4
			c-0.6,0.2-1.2,0.5-1.8,0.8c-0.6,0.3-1.1,0.7-1.5,1.1c0.4,3.9,1,7.8,1.8,11.6c0.8,3.8,1.5,7.6,2.3,11.4c0.4,1.7,0.7,3.3,0.9,4.6
			c0.2,1.3,0.5,2.8,0.8,4.5c2.2-5.9,4.3-11.6,6.5-17.3c2.2-5.6,4.4-11.3,6.7-17.1c0.1-0.1,0.1-0.2,0.3-0.2c0.1,0,0.3,0,0.4,0.1
			c1.8,3.7,3.4,7.6,4.9,11.8c1.5,4.1,2.9,8.2,4.3,12.4c0.6,1.8,1.2,3.6,1.7,5.4c0.6,1.7,1.2,3.5,1.8,5.3c0.7-2.3,1.5-4.8,2.3-7.6
			c0.8-2.8,1.6-5.6,2.3-8.5c0.7-2.9,1.3-5.7,1.7-8.4c0.5-2.7,0.7-5.2,0.7-7.4c0-0.3-0.1-0.6-0.4-0.9c-0.3-0.3-0.6-0.5-1-0.7
			c-0.4-0.2-0.8-0.4-1.2-0.5c-0.4-0.1-0.7-0.2-1-0.2c-0.2-0.1-0.2-0.2-0.2-0.4c0-0.2,0.1-0.3,0.3-0.3c1.4,0.1,2.8,0.2,4.2,0.2
			c1.4,0.1,2.8,0.1,4.2,0.1c0.7,0,1.4,0,2,0c0.7,0,1.4,0,2.2-0.1v0.6C297,1018.1,296.3,1018.3,295.6,1018.8z"/>
		<path class="st0" d="M335.1,1057.3c-0.2,1.2-0.3,2.4-0.5,3.6c0,0.2-0.1,0.2-0.3,0.2l-0.1,0.1c-0.4,0.2-0.8,0.2-1.1,0.2
			c-1.2,0-2.5,0-3.8,0c-1.3,0-2.5,0-3.8,0c-1.1,0-2.1,0-3.2,0c-1,0-2.1,0-3.2,0c-1.5,0-2.9,0-4.4,0c-1.5,0-3,0.1-4.4,0.1v-0.6
			c0.8,0,1.5-0.2,2-0.5c0.5-0.4,0.9-0.8,1.2-1.3c0.3-0.5,0.4-1.1,0.5-1.8c0.1-0.7,0.1-1.4,0.1-2.1v-33.7c0-1.1-0.3-1.8-0.8-2.1
			c-0.5-0.3-1.1-0.6-1.7-0.8c-0.3-0.1-0.7-0.2-1.1-0.4c-0.4-0.1-0.8-0.3-1.3-0.6c-0.1-0.1-0.1-0.2-0.1-0.4c0-0.1,0.1-0.2,0.3-0.2
			h23.1c0.2-0.1,0.4-0.2,0.7-0.3c0.2-0.1,0.5-0.2,0.7-0.3c0.3-0.1,0.4,0,0.4,0.3c-0.2,1.4-0.4,2.7-0.6,3.9s-0.5,2.4-0.8,3.7
			c-0.1,0.2-0.2,0.2-0.4,0.2c-0.2,0-0.3-0.1-0.3-0.3c-0.1-1.9-0.8-3.1-1.9-3.7c-1.2-0.6-2.6-0.9-4.4-0.9h-6.4v16.6h9.4
			c0.3,0,0.6-0.1,1.1-0.2c0.4-0.2,0.9-0.3,1.3-0.5c0.6-0.3,1.2-0.6,1.8-0.7c0.3-0.1,0.4,0,0.4,0.3c-0.1,0.6-0.1,1.4-0.2,2.1
			c-0.1,0.8-0.2,1.5-0.3,2.1c-0.1,0.6-0.2,1.3-0.2,2s-0.1,1.4-0.2,2c0,0.2-0.1,0.3-0.2,0.3c-0.1,0.1-0.3,0-0.4-0.1
			c-0.3-0.3-0.4-0.5-0.5-0.8c-0.1-0.3-0.2-0.6-0.3-0.9c-0.1-0.3-0.2-0.6-0.3-1c-0.1-0.3-0.3-0.6-0.6-0.9c-0.3-0.3-0.8-0.5-1.5-0.6
			c-0.7-0.1-1.5-0.2-2.4-0.3c-0.8-0.1-1.7-0.1-2.5-0.1s-1.4,0-1.9,0h-2.4v16.7c0.8,1.2,2,2.1,3.4,2.7c1.5,0.6,2.9,0.9,4.3,0.9
			c1.9,0,3.5-0.5,4.8-1.5c1.3-1,2.2-2.4,2.6-4.3l0.6,0.2C335.5,1055,335.3,1056.2,335.1,1057.3z"/>
		<path class="st0" d="M390.2,1049.1c-1.2,2.9-3,5.4-5.2,7.3c-2.2,1.9-4.9,3.4-8,4.3c-3.1,0.9-6.6,1.4-10.4,1.4
			c-1.4,0-2.9-0.1-4.3-0.2c-1.5-0.1-2.9-0.2-4.3-0.3c-1.6-0.1-3.1-0.2-4.7-0.3c-1.6-0.1-3.2-0.1-4.7-0.1c-0.2,0-0.3-0.1-0.3-0.3
			c0-0.2,0-0.3,0.2-0.4c1.8-0.4,2.9-1,3.3-1.9s0.6-2.2,0.6-3.9v-33.5c0-1.2-0.3-2-1-2.4c-0.6-0.4-1.3-0.6-1.9-0.7
			c-0.4-0.1-0.7-0.1-1.1-0.2c-0.3-0.1-0.6-0.3-0.7-0.6c-0.2-0.3-0.1-0.5,0.2-0.5c0.7,0,1.4,0,2,0c0.6,0,1.3,0.1,2,0.1
			c0.8,0.1,1.7,0.1,2.7,0.2c1,0.1,1.9,0.1,2.8,0.1c1.1,0,2.2,0,3.2-0.1c1.1-0.1,2.2-0.1,3.2-0.2c1-0.1,2.1-0.2,3.2-0.2
			c1.1,0,2.2,0,3.2,0c3.1,0,6,0.6,8.7,1.7c2.7,1.1,5,2.7,6.9,4.7c1.9,2,3.5,4.3,4.6,7c1.1,2.7,1.7,5.5,1.7,8.6
			C392,1042.7,391.4,1046.2,390.2,1049.1z M384.8,1032.1c-1.1-2.6-2.6-4.9-4.6-6.8c-1.9-1.9-4.3-3.3-7-4.3c-2.7-1-5.7-1.5-9-1.5
			c-1.1,0-2.2,0.1-3.2,0.2c-1.1,0.1-2.1,0.4-3.2,0.7v32.2c0,1.6,0.2,2.8,0.5,3.7c0.3,0.9,0.9,1.6,1.6,2.1c0.7,0.5,1.6,0.8,2.6,0.9
			c1.1,0.1,2.3,0.2,3.8,0.2c3,0,5.7-0.4,8.1-1.2c2.5-0.8,4.6-1.9,6.4-3.5c1.8-1.5,3.2-3.5,4.1-5.8s1.5-5,1.5-8.1
			C386.5,1037.7,386,1034.7,384.8,1032.1z"/>
		<path class="st0" d="M446.4,1049.1c-1.2,2.9-3,5.4-5.2,7.3c-2.2,1.9-4.9,3.4-8,4.3c-3.1,0.9-6.6,1.4-10.4,1.4
			c-1.4,0-2.9-0.1-4.3-0.2c-1.5-0.1-2.9-0.2-4.3-0.3c-1.6-0.1-3.1-0.2-4.7-0.3c-1.6-0.1-3.2-0.1-4.7-0.1c-0.2,0-0.3-0.1-0.3-0.3
			c0-0.2,0-0.3,0.2-0.4c1.8-0.4,2.9-1,3.3-1.9s0.6-2.2,0.6-3.9v-33.5c0-1.2-0.3-2-1-2.4c-0.6-0.4-1.3-0.6-1.9-0.7
			c-0.4-0.1-0.7-0.1-1.1-0.2c-0.3-0.1-0.6-0.3-0.7-0.6c-0.2-0.3-0.1-0.5,0.2-0.5c0.7,0,1.4,0,2,0c0.6,0,1.3,0.1,2,0.1
			c0.8,0.1,1.7,0.1,2.7,0.2c1,0.1,1.9,0.1,2.8,0.1c1.1,0,2.2,0,3.2-0.1c1.1-0.1,2.2-0.1,3.2-0.2c1-0.1,2.1-0.2,3.2-0.2
			c1.1,0,2.2,0,3.2,0c3.1,0,6,0.6,8.7,1.7c2.7,1.1,5,2.7,6.9,4.7c1.9,2,3.5,4.3,4.6,7s1.7,5.5,1.7,8.6
			C448.3,1042.7,447.7,1046.2,446.4,1049.1z M441.1,1032.1c-1.1-2.6-2.6-4.9-4.6-6.8c-1.9-1.9-4.3-3.3-7-4.3c-2.7-1-5.7-1.5-9-1.5
			c-1.1,0-2.2,0.1-3.2,0.2c-1.1,0.1-2.1,0.4-3.2,0.7v32.2c0,1.6,0.2,2.8,0.5,3.7c0.3,0.9,0.9,1.6,1.6,2.1c0.7,0.5,1.6,0.8,2.6,0.9
			c1.1,0.1,2.3,0.2,3.8,0.2c3,0,5.7-0.4,8.1-1.2c2.5-0.8,4.6-1.9,6.4-3.5c1.8-1.5,3.2-3.5,4.1-5.8s1.5-5,1.5-8.1
			C442.8,1037.7,442.2,1034.7,441.1,1032.1z"/>
		<path class="st0" d="M472.2,1061.6c-1,0-2,0-3,0c-1.5,0-2.9,0-4.3,0c-1.4,0-2.8,0.1-4.3,0.1c-0.2,0-0.3-0.1-0.3-0.3
			c0-0.2,0-0.3,0.2-0.4c1.4-0.5,2.3-1.2,3-2.2c0.6-1,0.9-2.2,0.9-3.6v-33.7c0-1.2-0.4-2.1-1.3-2.6c-0.8-0.5-1.8-0.8-3-1
			c-0.2-0.1-0.2-0.2-0.2-0.4c0-0.2,0.1-0.3,0.3-0.3c1.1,0.1,2.3,0.2,3.4,0.2c1.1,0.1,2.3,0.1,3.5,0.1c1.1,0,2.3,0,3.4-0.1
			c1.1-0.1,2.2-0.2,3.3-0.3c0.2-0.1,0.3,0,0.3,0.2c0.1,0.2,0,0.4-0.2,0.4c-1.2,0.3-2.1,0.6-2.9,1c-0.7,0.4-1.1,1.3-1.1,2.7v33.4
			c0,2.1,0.4,3.5,1.2,4.4c0.8,0.9,2.1,1.4,4.1,1.6v0.6C474.3,1061.6,473.3,1061.6,472.2,1061.6z"/>
		<path class="st0" d="M534.4,1017.9c0,0-0.1,0-0.2,0c-0.8,0.2-1.6,0.5-2.4,0.8c-0.8,0.3-1.3,0.9-1.3,1.7l0.1,19.5v3.3
			c0,3.1-0.1,6.2-0.2,9.3c-0.1,3.1-0.3,6.1-0.6,9.2c0,0.1-0.1,0.2-0.2,0.3c-0.1,0.1-0.3,0.1-0.4,0c-2.6-2.2-5.2-4.6-7.8-7.2
			c-2.6-2.6-5.1-5.2-7.7-7.9c-2.5-2.7-5-5.4-7.4-8.1c-2.4-2.7-4.8-5.4-7-8c-0.8-0.8-1.4-1.6-2-2.3c-0.6-0.7-1.3-1.5-2-2.3
			c-0.2,1.5-0.2,2.9-0.2,4.2c0,2.1,0,4.1,0.1,6.2c0.1,2.1,0.1,4.1,0.2,6.2c0.1,2.1,0.2,4.1,0.2,6.2c0.1,2.1,0.1,4.1,0.1,6.2
			c0,0.9,0.1,1.7,0.2,2.2c0.2,0.6,0.4,1,0.6,1.3c0.2,0.3,0.5,0.6,0.9,0.7c0.3,0.1,0.7,0.2,1.1,0.3c0.4,0.1,0.9,0.2,1.3,0.4
			c0.4,0.1,0.9,0.4,1.5,0.8c0.1,0.1,0.1,0.2,0.1,0.4c0,0.1-0.1,0.2-0.3,0.2c-0.5-0.1-1.1-0.1-1.6-0.2c-0.5-0.1-1-0.1-1.6-0.2
			c-0.8-0.1-1.5-0.2-2.3-0.2c-0.8-0.1-1.6-0.1-2.3-0.1c-1,0-2,0.1-3,0.2c-1,0.1-2.1,0.3-3.1,0.4c-0.2,0.1-0.3,0-0.4-0.2
			c-0.1-0.2-0.1-0.3,0-0.4c0.4-0.4,0.8-0.7,1.2-0.9c0.3-0.2,0.7-0.4,1-0.6c0.6-0.3,1.2-0.8,1.7-1.3c0.5-0.6,0.8-1.5,0.8-2.7v-37.9
			l0.6-1.3c0.1-0.1,0.1-0.2,0.2-0.2c0.1-0.1,0.2,0,0.2,0.1c5.9,6.1,11.6,12.1,17.1,18c5.5,5.9,11.1,12,16.8,18.4v-0.2
			c0-2.5,0-4.9,0-7.4c0-2.4-0.1-4.9-0.1-7.5c-0.1-2.3-0.1-4.8-0.2-7.4c-0.1-2.6-0.1-5.1-0.1-7.4c0-0.9-0.1-1.7-0.3-2.2
			c-0.2-0.6-0.4-1-0.8-1.3c-0.3-0.3-0.7-0.5-1.1-0.6c-0.4-0.1-0.8-0.2-1.1-0.2c-0.4-0.1-0.8-0.1-1.2-0.2c-0.4-0.1-0.7-0.3-0.9-0.5
			c-0.1-0.1-0.1-0.2,0-0.4c0.1-0.2,0.2-0.2,0.3-0.2c1.2,0.2,2.4,0.2,3.5,0.2c1.1,0,2.3,0,3.4,0c0.7,0,1.4,0,2.1,0c0.7,0,1.5,0,2.2,0
			c0.3,0,0.6,0,0.9,0c0.3,0,0.6,0,0.9,0l0.2,0.6C534.5,1017.9,534.5,1018,534.4,1017.9z"/>
		<path class="st0" d="M587.4,1041.2c-0.8,0.5-1.2,1.2-1.2,2.3v15.1c0,0.1-0.1,0.1-0.2,0.2c-2,1.5-4.2,2.4-6.6,2.8
			c-2.4,0.3-4.8,0.5-7.2,0.5c-3.8,0-7.3-0.5-10.4-1.5c-3.2-1-5.9-2.5-8.2-4.5c-2.3-2-4.1-4.5-5.4-7.5s-1.9-6.6-1.9-10.6
			c0-3.6,0.6-6.7,1.9-9.5c1.3-2.8,3-5.1,5.2-6.9c2.2-1.9,4.8-3.3,7.8-4.2c3-0.9,6.1-1.4,9.5-1.4c1.9,0,3.8,0.1,5.7,0.4
			c1.9,0.2,3.8,0.5,5.6,0.8c0.8,0.1,1.5,0.2,2.1,0.3c0.6,0.1,1.3,0.2,2,0.3c0.2,0,0.3,0.1,0.3,0.3c0,1.5-0.1,2.9-0.3,4.2
			c-0.2,1.3-0.4,2.7-0.6,4.1c-0.1,0.3-0.1,0.6-0.1,0.9c0,0.3-0.1,0.6-0.1,0.9c-0.1,0.2-0.2,0.2-0.3,0.2c-0.2,0-0.3-0.1-0.3-0.2
			c-0.3-1.7-0.9-3.2-1.7-4.5c-0.8-1.2-1.8-2.3-3-3.1c-1.2-0.8-2.6-1.4-4.1-1.8c-1.5-0.4-3-0.6-4.7-0.6c-2.8,0-5.3,0.5-7.7,1.4
			c-2.4,0.9-4.4,2.2-6.2,3.9c-1.8,1.7-3.1,3.6-4.1,5.9c-1,2.3-1.5,4.8-1.5,7.6c0,3,0.6,5.9,1.7,8.6c1.1,2.7,2.6,5.1,4.6,7.1
			c1.9,2,4.2,3.6,6.8,4.7c2.6,1.2,5.4,1.7,8.5,1.7c1.2,0,2.6-0.2,3.9-0.5c1.4-0.3,2.5-0.9,3.4-1.7v-13.5c0-0.9-0.3-1.5-0.8-1.9
			c-0.6-0.3-1.2-0.6-1.9-0.8c-0.3-0.1-0.6-0.2-0.9-0.3c-0.3-0.1-0.7-0.3-1.1-0.5c-0.2-0.1-0.2-0.2-0.2-0.4c0.1-0.1,0.2-0.2,0.3-0.2
			c4.8,0,9.5,0.1,14.2,0.2l0.1,0.6C589.2,1040.4,588.2,1040.7,587.4,1041.2z"/>
	</g>
	<g>
		<path class="st0" d="M332.5,80.2c0,0.2,0,1,0,2.6c-0.2,3-0.9,6.4-2,10c-1.7,5.3-4.6,10.9-8.5,16.8c-1.5,1.9-2.4,3-2.7,3.4
			c-0.3,0.4-1.8,2.2-4.6,5.4c-2.8,3.2-4.9,5.7-6.4,7.4c-1,1-1.6,1.6-2,2c-2.1,1.5-5.7,4.6-10.8,9.1c-7,6.5-16.6,13.6-28.8,21.4
			c-0.4,0.4-1,0.8-1.7,1.3c-0.8,0.5-1.2,0.7-1.4,0.7c-0.4,0.2-0.7,0.4-1,0.6c-0.3,0.2-0.6,0.4-1,0.7c-0.4,0.3-0.8,0.4-1.1,0.4
			c-2.8,1.7-4.7,2.8-5.7,3.1c-1.7,0.8-4.1,2-7.1,3.7c-0.6,0.4-1.3,0.8-2.1,1.3c-0.9,0.5-1.7,1-2.6,1.4c-0.9,0.5-1.6,0.9-2.3,1.1
			c-0.7,0.3-2.5,1.2-5.4,2.7c-2.9,1.5-5.3,2.7-7,3.4c-1.9,1-3.9,1.9-6,2.8c-0.6,0.2-1.3,0.4-2.1,0.7c-0.9,0.3-1.6,0.6-2.3,0.9
			c-0.7,0.3-1.4,0.6-2.1,1c-7.2,2.8-12.6,4.8-16.2,6c-4,1.5-6.3,2.4-6.8,2.6c-1,0.2-2.2,0.5-3.7,1c-1.5,0.5-2.7,0.8-3.4,1
			c-1.9,0.6-4.2,1.3-6.8,2.3c-2.1,0.6-4.4,1.2-6.8,2c-8.2,2.1-14.6,3.6-19.4,4.6c-0.2,0-8.3,1.3-24.2,4c0,0.2-0.1,0.3-0.3,0.3
			c1.9,0.6,3.5,1,4.8,1.1c1.7,0.2,4,0.8,6.8,1.7l2,0.6l1.7,0.6c2.1,0.8,3.3,1.2,3.7,1.4l0.6,0.3c1.7,1,2.9,1.7,3.7,2.3
			c1.7,1.1,2.9,1.9,3.7,2.3c0.9,0.8,2,1.6,3.1,2.6c0.2,0.2,0.9,0.8,2.3,1.7c0.8,0.8,1.4,1.4,2,2c0.6,0.6,1.2,1.4,2,2.4
			c0.8,1,1.3,1.7,1.7,1.9c0.9,1.1,1.8,2.2,2.6,3.1c0.4,0.6,1.1,1.6,2.3,3.1l1.7,3.1c0.2,0.2,0.4,0.6,0.6,1.1l0.6,1.4
			c0.4,1,0.8,1.8,1.1,2.6c0.4,0.6,0.9,1.5,1.4,2.7c0.6,1.2,1,2.1,1.4,2.7c0.8,1.1,1.3,2.7,1.7,4.6c0.2,0.8,0.8,2.2,1.7,4.3
			c0,0.2,0.2,0.8,0.6,1.7c0.4,0.9,0.8,1.6,1.1,2c0.2,0.6,0.8,1.9,1.7,4c0.4,0.6,0.6,1,0.6,1.4c0,0.4,0.1,0.8,0.3,1.3
			c0.2,0.5,0.3,0.9,0.4,1.3c0.1,0.4,0.1,0.8,0.1,1.1c0,0.2,0.1,0.4,0.3,0.6c0.6,1.5,0.9,2.5,0.9,2.8c0.4,0.9,0.6,2,0.6,3.1
			c0,0.2,0.1,0.6,0.3,1.1c0.2,0.2,0.4,1.9,0.6,5.1c0,0.2,0,0.5-0.1,0.9c-0.1,0.4-0.1,0.7-0.1,0.9c0,0.2,0.2,0.7,0.6,1.4
			c-0.6,0.6-1,1.6-1.1,3.1c0,0.4-0.2,1.5-0.6,3.4c0.2,0.2,0.4,0.6,0.6,1.1c0.9,0.2,1.6,0.4,1.9,0.7c0.3,0.3,0.8,1.1,1.6,2.4
			c0,0.2-0.1,0.4-0.3,0.6c0,0.4,0,0.8-0.1,1.3c-0.1,0.5-0.1,0.8-0.1,1c-0.2,0.2-0.3,0.3-0.3,0.4c0,0.1,0,0.2,0,0.3
			c0,0.1,0,0.2,0,0.4v0.6c-0.4,0.6-0.7,1.5-1,2.7c-0.3,1.2-0.6,2.1-1,2.6c-0.4,0.5-0.9,0.6-1.4,0.4c0-0.2-0.2-0.3-0.6-0.3
			c-0.4,0-0.7,0-0.9,0c-0.2,0-0.5-0.1-0.9-0.3c-1.5-1.3-2.4-2-2.6-2c-1.3-0.6-1.9-2-1.7-4.3c0-1,0.3-2.1,0.9-3.4
			c0.2-1.1,0.5-1.8,0.9-2l1.1-2c0-0.4,0.1-0.6,0.3-0.6c0.6-0.6,0.7-1.2,0.3-2c-0.2-0.4-0.2-0.7,0-0.9c0.8-0.8,0.8-1.5,0-2.3
			c0.4-0.8,0.4-1.4,0-2c-0.4-0.4-0.5-1-0.3-2c0.2-0.4,0.2-0.7,0.1-1c-0.1-0.3-0.2-0.6-0.3-1c-0.1-0.4-0.1-0.8-0.1-1.1
			c0-0.2,0-0.5-0.1-1c-0.1-0.5-0.1-0.8-0.1-1c0-1.1-0.2-2.1-0.6-2.8c-0.6-1-0.9-1.8-0.9-2.6c0-0.2,0-0.5-0.1-1
			c-0.1-0.5-0.2-0.9-0.3-1.3c-0.1-0.4-0.1-0.8-0.1-1.1c0-0.2-0.1-0.4-0.3-0.6c-0.8-0.6-1-1.1-0.6-1.7c0.2-0.2,0.2-0.6,0-1.1
			c-0.8-1.7-1.1-2.8-1.1-3.1c-0.2,0-0.4,0-0.6,0c0.2-0.2,0.4-0.4,0.6-0.6c-0.4-1.3-0.6-2.1-0.6-2.3c-0.2-1.3-0.8-2.8-1.7-4.3
			l-0.6-0.9c-0.2-0.4-0.3-0.8-0.4-1.3c-0.1-0.5-0.2-0.9-0.4-1.3c-0.4-0.8-1-2.1-2-4l-0.6-0.9c-0.2-0.6-0.6-1.2-1.1-2
			c-0.2-0.2-0.4-0.5-0.7-0.9c-0.3-0.4-0.5-0.6-0.7-0.6c-0.2-0.4-0.3-0.7-0.3-0.9c-0.2-0.9-0.8-2-1.7-3.1c-0.8-0.8-1.8-1.9-3-3.6
			c-1.2-1.6-2.2-2.8-3-3.6c-1-1.1-1.6-2.1-2-2.8c-0.2-0.2-1.2-1.2-3.1-3.1c-0.2-0.2-0.4-0.4-0.7-0.6c-0.3-0.2-0.5-0.4-0.7-0.6
			c-0.2-0.2-0.4-0.4-0.7-0.6c-0.3-0.2-0.5-0.4-0.7-0.6c-0.2-0.2-0.5-0.4-0.9-0.7c-0.4-0.3-0.7-0.6-1-0.9c-0.3-0.3-0.5-0.5-0.7-0.7
			c-0.6-0.4-1.3-0.9-2.3-1.6c-1-0.7-1.5-1-1.7-1c-1.5-1.1-2.7-1.9-3.4-2.3c-0.2-0.2-1.3-0.7-3.4-1.4c-0.4-0.2-1.1-0.5-2.3-1
			c-1.1-0.5-2-0.8-2.6-1c-2.7-1.1-4.8-1.8-6.5-2c-0.2,0-1-0.2-2.6-0.6l-1.7-0.6c-0.2,0.2-0.4,0.4-0.6,0.6c-0.2,0.2-0.4,0.4-0.6,0.7
			c-0.2,0.3-0.4,0.5-0.6,0.7c-0.2,0.2-0.4,0.4-0.6,0.6c-1.1,1-3.3,3.4-6.5,7.4c-0.6,0.8-1,1.1-1.1,1.1c-1.9,1.3-4,3.3-6.3,6
			c-1.7,2.1-4.3,5-7.8,8.7c-3.5,3.7-5.7,6.1-6.7,7.3c-2.3,2.5-4.3,4.4-6,5.7c-0.6,0.4-2.8,2.7-6.5,6.8c-0.6,0.8-1.5,1.9-2.7,3.3
			c-1.2,1.4-2.1,2.5-2.7,3.1c-0.6,0.7-1.5,1.6-2.8,2.8c-1.3,1.2-2.3,2.2-2.8,3c-1,0.9-2.2,2.3-3.8,4.1c-1.6,1.8-2.7,3.1-3.3,3.8
			c-0.4,0.4-1.3,1.4-2.7,3c-1.4,1.6-2.5,2.8-3.3,3.6c-1,1.1-2.8,3.4-5.4,6.8c-3.6,4.6-6.2,7.6-7.7,9.1c-3.8,4.6-6.9,8.5-9.4,12
			c-0.4,0.6-1.6,2.3-3.7,5.1c-3.4,4.4-5.5,7.2-6.3,8.5c-0.2,0.2-1.1,1.3-2.8,3.4c-3.4,4.4-5.3,6.7-5.7,7.1c-1.3,1.7-2.8,2.9-4.3,3.7
			c-1.5,0.8-2.5,0.9-2.8,0.3c0.8-1.3,1.7-2.8,2.8-4.3c1.1-1.5,2.3-3.1,3.4-4.7c1.1-1.6,2.1-3,2.8-4.1c0.8-0.8,1.9-2.1,3.3-4.1
			s2.6-3.5,3.6-4.4c3.6-4.4,6.9-8.7,10-13.1c1.1-1.9,4.1-6,8.8-12.2c1.3-1.5,3.1-3.8,5.3-6.7c2.2-2.9,3.7-5.1,4.7-6.4
			c0.4-0.2,0.8-0.6,1.1-1.1c3.8-4.4,7.9-9,12.2-14c0.6-0.8,1.5-1.8,2.8-3.1c1.3-1.3,2.3-2.4,2.8-3.1c0.4-0.6,1.6-1.9,3.6-4.1
			s3.6-3.8,4.7-5c0.8-0.8,1.7-1.7,2.7-2.7c1-1,2.1-2.1,3.1-3.1c1-1,1.9-1.9,2.7-2.7c0.6-0.8,2.2-2.6,5-5.4c2.7-2.8,4.9-5,6.4-6.5
			c0.4-0.4,2.2-2.2,5.4-5.4c0.8-0.6,1.8-1.4,3-2.4c1.2-1,2.3-2,3.3-3c0.9-0.9,1.9-1.9,2.8-2.8c0.8-0.9,2.2-2.4,4.3-4.3
			c-0.4-0.2-0.9-0.3-1.4-0.4c-0.6-0.1-1-0.2-1.4-0.3c-0.4-0.1-0.8-0.1-1.1-0.1c-0.2-0.2-0.4-0.3-0.6-0.3c-1.3,0-3.1,0.1-5.3,0.3
			c-2.2,0.2-4.1,0.4-5.8,0.6c-1.7,0.2-3.4,0.4-5.1,0.6c-0.4,0.2-2.7,0.4-6.8,0.6c-1,0-2.3,0-4,0s-2.9,0.1-3.7,0.3
			c-3.6,0-6.2,0-7.7,0c-2.3-0.2-4.4-0.4-6.4-0.7c-2-0.3-3.5-0.7-4.6-1.1c-1-0.5-1.5-1-1.3-1.6c2.3,0,5.1,0,8.5-0.1
			c3.4-0.1,6.6-0.2,9.5-0.3c2.9-0.1,5.6-0.3,8.1-0.7c1.9,0.2,4.8,0,8.7-0.4c3.9-0.5,6.9-0.6,9-0.4c1.3-0.2,2.8-0.3,4.6-0.3
			c0-0.2,0.2-0.3,0.6-0.3c4.2-0.4,8.2-0.9,12-1.4c2.1-2.3,4.5-4.6,7.1-6.8c0.8-0.8,3.1-3.3,7.1-7.7c2.5-2.7,4.5-4.8,6-6.5
			c0.8-0.9,1.9-2.3,3.3-4c1.4-1.7,2.4-2.9,3-3.7c1.1-1.1,1.8-1.9,2-2.3c0.6-0.4,1.5-1.3,2.8-2.8c1.3-1.5,2.4-2.7,3.1-3.4
			c0.4-0.2,0.7-0.5,0.9-0.9c3.8-4.7,6.7-8.1,8.8-10c0.4-0.2,0.9-0.8,1.7-1.7c0.6-0.8,3.2-3.5,8-8.3c0.4-0.2,0.9-0.6,1.6-1.3
			c0.7-0.7,1.2-1.1,1.6-1.3c0-0.2,0.6-0.9,1.7-2.3c1.3-0.6,3.2-2.1,5.7-4.6c0.2-0.2,2.2-1.8,6-4.8c0-0.4,0.4-1.1,1.1-2.3
			c-0.4-0.8-0.5-1.4-0.3-2c0.2-0.6,0.9-2.3,2.3-5.1c0.6-0.2,0.9-0.4,1.1-0.6c0.9-0.8,2.1-1.8,3.4-3.1c0.2,0,0.4-0.1,0.6-0.3
			c0.2-0.2,0.3-0.3,0.4-0.4c0.1-0.1,0.2-0.2,0.4-0.4c0.2-0.2,0.3-0.4,0.3-0.6c0.8-0.8,1.2-1.1,1.4-1.1c0.8-0.4,1.7-1,2.8-2
			c1.1-0.9,2.2-1.9,3.3-2.8c1-0.9,2-1.7,3-2.3c1.1-0.6,1.7-0.5,1.7,0.3c0,0.2,0.2,0.4,0.6,0.6c0.4,0,0.6,0.1,0.6,0.3
			c0.2,0.2,0.3,0.6,0.3,1.1c-0.4,2.8-0.6,4.4-0.6,4.6c0.4,1.5-1.2,4.1-4.8,7.7c-1.5,1.5-3.5,3.2-6,5.1c-2.1,1.7-3.5,2.8-4.3,3.1
			c-0.2,0-1.5,0.9-4,2.6l-0.6,0.3l-0.6,0.6c-1.3,0.4-2.5,1.3-3.4,2.8c-0.8,1-1.3,1.5-1.7,1.7c-1.5,0.6-2.7,1.7-3.4,3.4
			c-1.5,0.8-2.7,1.8-3.4,3.1c-0.6,1-1.6,2.1-3.1,3.4c-0.4,0.4-0.8,0.8-1.3,1.3c-0.5,0.5-0.9,0.9-1.3,1.3c-0.4,0.4-0.8,0.9-1.1,1.4
			c-0.4,0.6-0.8,1-1.1,1.4c-0.4,0.2-1,0.7-1.7,1.4c-0.8,0.8-1.3,1.3-1.7,1.7c-1.9,1.7-3.3,3.3-4.3,4.8c-1.3,1.7-2.8,3.3-4.3,4.8
			c-0.6,0.4-1.2,1-1.9,1.7c-0.7,0.8-1.3,1.5-2,2.3c-0.7,0.8-1.3,1.3-1.9,1.7c-0.6,0.4-1,0.9-1.1,1.4c-0.6,1.5-1.5,2.5-2.8,2.8
			l-1.7,2c-1.7,1.7-3.5,3.6-5.4,5.7c0,0.2,0,0.4,0,0.6l-0.9,0.3c-2.5,2.5-3.8,3.7-4,3.7c-3,2.8-5.5,5.4-7.4,7.7
			c-0.6,1-1.1,1.7-1.7,2.3c-0.4,0.4-0.8,0.8-1.1,1.1c-0.4,0.4-0.8,0.8-1.1,1.1c-0.4,0.4-0.8,0.7-1.1,0.9c1.1-0.2,2.2-0.4,3.1-0.6
			c13.5-2.8,21.4-4.6,23.9-5.1c8.7-2.3,17.3-4.8,25.6-7.7c0.6-0.2,1.3-0.5,2.3-0.9c9.3-2.8,18.7-6.4,28.2-10.5
			c0.8-0.2,1.9-0.7,3.6-1.4c1.6-0.8,2.5-1.1,2.7-1.1c1.5-0.6,3.7-1.5,6.5-2.8c0.9-0.6,1.9-1.1,2.8-1.6c0.9-0.5,2-1,3.3-1.6
			c1.2-0.6,2.1-1,2.7-1.4c1.1-0.8,4.1-2.4,8.8-4.8c9.3-5.1,15-8.4,17.1-9.7c6.5-4,13.8-9.1,21.9-15.4c3-2.3,6.4-4.8,10-7.7
			c6.6-5.3,11.6-9.8,14.8-13.4c6.3-6.8,10.7-12.7,13.4-17.7c0-0.2,0.1-0.5,0.3-0.9c0.2-0.6,0.4-1,0.6-1.4c0.2-0.4,0.5-1,0.9-2
			c0.4-0.8,0.7-1.4,0.9-2c0.4-0.8,0.7-1.4,0.9-2l0.6-2.3l0.6-2c0-0.2,0.1-0.9,0.3-2.3c0.2-0.9,0.3-1.6,0.3-2
			c0.6-5.9-1-11.2-4.8-15.9c-1.5-1.7-3.3-3.3-5.4-4.8c-1.9-1.3-4.1-2.4-6.5-3.1c-4.6-1.3-9.8-2-15.7-2c-0.4,0-0.8,0-1.3,0
			c-0.5,0-0.9,0-1.3,0.1c-0.4,0.1-0.8,0.1-1.3,0.1c-0.5,0-0.9,0-1.3,0c-1.7,0-4.2,0.2-7.5,0.6c-3.3,0.4-5.5,0.7-6.4,0.9
			c-0.6,0-1.2,0.1-2,0.3c-2.1,0.4-4.3,0.9-6.5,1.6c-2.3,0.7-4.7,1.4-7.4,2.1c-2.7,0.8-4.9,1.3-6.8,1.7c-0.8,0.2-2,0.7-3.7,1.4
			c-1.1,0.4-2.8,1-5,1.7c-2.2,0.8-3.6,1.2-4.1,1.4l-4.3,1.4l-4.6,1.7c-4,1.5-6,2.4-6,2.6c-0.8,0.2-2.1,0.9-4,2
			c-2.7,0.4-6.4,1.8-11.1,4.3c-1.5,0.8-3.3,1.6-5.4,2.6c-3,1.5-5,2.5-6,2.8c-0.8,0.6-1.9,1.4-3.4,2.6c0.2,0.8,0,1.5-0.6,2.3
			c-0.6,0.8-2.7,2.8-6.3,6.3c-0.4,0-0.9,0.2-1.4,0.6h-0.6c-0.4,0.4-1,0.8-1.7,1.1c-0.8,0.4-1.3,0.8-1.7,1.1c-0.4,0-0.7,0.1-1,0.4
			c-0.3,0.3-0.6,0.5-1,0.7c-0.4,0.2-0.7,0.4-0.9,0.6c-0.6,0.4-1.2,0.8-2,1.1c-0.2,0.2-0.5,0.4-0.9,0.6c-0.2,0.2-0.4,0.4-0.6,0.6
			c-0.2,0-0.5,0.2-0.9,0.6l-1.4,0.9c-2.1,1.1-4.7,2.8-8,5.1c-4.2,2.8-6.7,4.6-7.7,5.1c-1.7,0.8-2.6,0.9-2.6,0.3
			c0-0.4-0.4-0.8-1.1-1.1c0-0.2,0.1-0.6,0.3-1.1c0.2-0.6,0.6-1.3,1.1-2.1c0.6-0.9,1-1.6,1.3-2.3c0.3-0.7,0.4-1.2,0.4-1.6
			c0-0.9,1.1-2.5,3.4-4.7c2.3-2.2,4.7-4.1,7.4-5.8c1.1-0.9,3-2.2,5.7-3.7c0.6-0.4,1.5-0.9,2.8-1.7c1.3-0.8,2.3-1.3,2.8-1.7
			c2.5-1.3,3.8-2.1,4-2.3c1.3-0.8,2.6-1.2,3.7-1.4c0.4-0.2,1-0.5,1.9-0.9c0.9-0.4,1.8-0.8,2.7-1.3c0.9-0.5,1.8-0.8,2.6-1
			c0.2,0,0.4-0.1,0.7-0.3c0.3-0.2,0.6-0.3,0.9-0.4c0.3-0.1,0.5-0.2,0.7-0.4c2.1-0.4,4.3-1.4,6.5-3.1c1.7-0.9,2.9-1.5,3.7-1.7
			c2.3-0.4,4.6-1.6,7.1-3.7c2.5-0.6,4.8-1.5,7.1-2.8c1.9-1.3,4.3-2.4,7.1-3.1c0.8-0.4,2.7-1.1,5.7-2.3c2.5-1.1,4.3-1.9,5.4-2.3
			c0.8-0.2,1.6-0.4,2.4-0.7c0.9-0.3,1.7-0.6,2.6-0.9c0.9-0.3,1.7-0.5,2.4-0.7c3.8-0.9,7.3-2.1,10.5-3.4c3-1.1,6.5-2.1,10.3-2.8
			c8.2-1.3,12.8-2,13.8-2c1,0,1.9-0.1,2.7-0.3c2.5-0.8,4.8-0.9,7.1-0.3l4.6,0.3c5.1,0.2,9.7,0.9,13.7,2c0.4,0,0.7,0,0.9,0
			c0.2,0.2,0.6,0.5,1.1,0.9l0.3,0.3c3.4,1.5,6.2,3.2,8.3,5.1c0.2,0,0.7,0.4,1.4,1.1c0.9,0.8,1.5,1.3,1.7,1.7
			c0.9,1.1,1.5,1.9,1.7,2.3c0.8,1,1.3,1.8,1.7,2.6l0.6,1.1c0.2,0.4,0.4,0.9,0.6,1.4c0.2,0,0.3,0.2,0.4,0.6c0.1,0.4,0.2,0.7,0.3,0.9
			c0.1,0.2,0.1,0.5,0.1,0.9l0.3,0.6l0.3,0.6v0.6c0,0.2,0,0.4,0.1,0.6c0.1,0.2,0.1,0.4,0.1,0.6c0.2,0.4,0.3,0.9,0.3,1.4
			C332.1,77.9,332.3,78.8,332.5,80.2z"/>
		<path class="st0" d="M346.2,200.3c3.6-1.7,5.8-1.7,6.5,0c-1.1,1-2.8,2.1-5,3.4c-2.2,1.3-3.8,2.4-4.7,3.1c-0.8,0.4-1.9,1.1-3.3,2.1
			c-1.4,1-2.6,1.7-3.6,1.9c-4,2.3-7.3,4.5-10,6.5c-1.3,1-4.5,2.8-9.4,5.7c-2.3,1.5-5.7,3.6-10.3,6.3c-0.2,0.2-0.5,0.4-0.9,0.6
			c-4.2,2.1-8.2,4.1-12,6c-0.4,0-0.8,0.1-1.3,0.4c-0.5,0.3-0.9,0.5-1.1,0.6c-0.3,0.1-0.6,0.2-1,0.4c-0.4,0.2-0.8,0.4-1.1,0.6
			c-0.4,0.2-0.8,0.4-1.1,0.6c-0.6,0.2-1.8,0.8-3.7,1.7c-1.9,1-3.4,1.6-4.6,2c-0.8,0.4-1.6,0.8-2.6,1.1c-1,0.4-1.9,0.7-3,1
			c-1,0.3-1.9,0.6-2.4,1c-1.1,0.4-2.9,1.1-5.4,2.1c-2.5,1-4.4,1.9-5.7,2.4c-0.4,0.2-2.2,0.8-5.4,1.7c-0.6,0.2-1.4,0.5-2.6,0.9
			c-1.1,0.4-2.2,0.7-3.1,1c-1,0.3-1.9,0.6-2.8,1c-0.4,0.2-3.5,1.2-9.4,3.1c-2.7,0.9-5.3,1.4-8,1.4c-1.7-0.2-2.9-0.4-3.7-0.6
			c-1.5-0.4-2.6-1.1-3.1-2.3c-0.6-1-0.9-2-0.9-3.1c0-1.1,0.2-2.3,0.6-3.4c0.6-2.3,1.4-4.6,2.6-6.8c0.4-0.9,0.8-1.6,1.1-2
			c0-0.2,0.4-0.9,1.3-2.3c0.9-1.3,1.6-2.3,2.1-2.8c0.2-0.2,0.4-0.5,0.6-0.9c2.1-3.8,3.8-6.5,5.1-8c0.2-0.2,0.6-0.7,1.1-1.4
			c0.4-0.9,2.1-3.2,5.1-6.8c0.2-0.2,0.5-0.5,1-1c0.5-0.5,0.8-0.8,1-1l1.1-1.7c1.1-0.4,2.5-1.5,4-3.4c0.4-0.4,1.8-1.6,4.3-3.7
			c0-0.2,0.1-0.6,0.3-1.1c0.2-0.4,0.3-0.7,0.3-0.9c-0.6-0.6-0.8-1.1-0.7-1.7c0.1-0.6,0.5-1.9,1.3-4c0.4-0.2,0.7-0.4,0.9-0.6
			c0.2-0.2,0.6-0.6,1.1-1.1c0.6-0.6,0.9-0.9,1.1-1.1c0.2,0,0.4-0.1,0.6-0.3c0.2-0.2,0.3-0.3,0.3-0.4c0-0.1,0.2-0.2,0.6-0.4l0.9-1.1
			c0.8-0.4,1.9-1.2,3.3-2.6c1.4-1.3,2.6-2.1,3.4-2.4c0.9-0.3,1.4-0.1,1.6,0.4c0,0.2,0.4,0.5,1.1,0.9c0.2,0.2,0.3,0.5,0.3,0.9
			c0.2,2.5,0.3,3.8,0.3,4c0.6,1.3-0.4,3.3-2.8,6c-1.1,1.3-2.6,2.7-4.3,4c-1.5,1.1-2.6,1.8-3.1,2c-0.2,0-1.1,0.6-2.8,1.7l-0.3,0.3
			l-0.6,0.6c-1,0.2-1.8,0.9-2.6,2c-0.4,0.8-0.7,1.2-0.9,1.4c-1.3,0.4-2.1,1.2-2.3,2.6c-1.1,0.6-1.9,1.4-2.3,2.6
			c-0.4,0.8-1,1.6-2,2.6c-0.4,0.4-0.8,0.8-1.1,1.3c-0.4,0.5-0.7,1-1,1.6c-0.3,0.6-0.6,1-1,1.4c-0.2,0.2-0.5,0.6-1,1.1
			c-0.5,0.6-0.8,1-1,1.4c-1.3,1.3-2.3,2.6-2.8,3.7c-0.6,1.5-1.3,2.8-2.3,4c-0.4,0.4-0.9,1.1-1.6,2.3c-0.7,1.1-1.3,2-1.9,2.6
			c-0.4,0.2-0.6,0.6-0.6,1.1c-0.2,1.1-0.8,1.9-1.7,2.3l-0.9,1.4c-0.9,1.7-1.6,3.2-2,4.6v0.3c-0.2,0.2-0.4,0.4-0.6,0.6
			c-0.2,0.6-0.4,1.3-0.6,2.3c0,0.6,0.1,1,0.3,1.1c0.6,0.4,1.2,0.5,2,0.3c0.6,0,1,0,1.4,0c1.7,0,2.9-0.1,3.7-0.3c1.9-0.4,4.3-1,7.1-2
			c0-0.2,0.2-0.3,0.6-0.4c0.4-0.1,0.8-0.2,1.1-0.4c0.9-0.2,3-1.1,6.3-2.8c0.6-0.4,0.9-0.6,1.1-0.6c1.5-0.2,3.4-0.9,5.7-2
			c1.5-0.8,3.1-1.5,4.7-2.1c1.6-0.7,3.4-1.4,5.3-2.1c1.9-0.8,3.4-1.4,4.6-2c2.3-0.9,4.2-1.6,5.7-2c0.4,0,2.5-0.9,6.3-2.6
			c0.6-0.4,1.5-0.9,2.7-1.4c1.2-0.6,2.1-1,2.7-1.4c0.6-0.2,1.5-0.5,2.7-1c1.2-0.5,2.1-0.8,2.7-1c0.8-0.4,1.5-0.8,2.3-1.1
			c0.8-0.4,1.6-0.8,2.4-1.3c0.9-0.5,1.6-0.8,2.1-1c0.6-0.2,1.5-0.6,2.8-1.3c1.3-0.7,2.4-1.2,3.1-1.6c0.8-0.4,2.6-1.3,5.4-2.8
			c4.6-2.7,7.1-4.1,7.7-4.3c4-2.1,7.1-4,9.4-5.7c0.4-0.2,1.7-0.9,4-2.3c3.4-2.1,5.6-3.5,6.5-4.3c0.2-0.2,1-0.7,2.6-1.4
			C343.9,201.6,345.8,200.5,346.2,200.3z M302,152.5v-0.3c-0.2-0.6-0.2-1,0-1.4v-0.3c0-0.4,0.3-0.8,0.9-1.1c0.2-0.8,0.5-1.4,0.9-2
			c0-0.2,0.1-0.3,0.3-0.3c0.2-0.2,0.4-0.3,0.6-0.3c0-0.2-0.1-0.4-0.3-0.6c-0.2-0.6-0.3-1.2-0.3-2c0.2,0.2,0.4,0.3,0.6,0.3
			c0.2,0,0.5-0.1,0.9-0.3h0.3h0.3l0.3-0.3c0.2,0.2,0.6,0.3,1.1,0.3h0.6c0.2,0.2,0.4,0.3,0.7,0.3s0.5,0.1,0.7,0.3
			c0.4,0.2,0.7,0.4,0.9,0.6l0.3,0.3h0.3c0.6,0.2,1,0.5,1.4,0.9c0.2,0,0.4,0.1,0.6,0.3c0.2,0.2,0.4,0.4,0.6,0.7
			c0.2,0.3,0.3,0.5,0.4,0.7c0.1,0.2,0.1,0.4,0.1,0.7c0,0.3,0,0.5,0,0.7c0,0.2,0,0.4,0,0.6c0,0.2,0,0.4,0,0.6c-0.2,0-0.3,0.1-0.3,0.3
			c-0.2,0.4-0.3,0.7-0.3,0.9c-0.6,0.8-1.1,1.4-1.7,2c-0.2,0-0.5,0.1-0.9,0.3c-0.2,0-0.5,0-0.9,0c-0.2,0-0.3,0.1-0.4,0.4
			c-0.1,0.3-0.2,0.3-0.4,0.1c-0.6,0.2-0.9,0.6-0.9,1.1l-0.3,1.7l-3.7-1.7c-0.8-0.4-1.3-0.9-1.7-1.4c-0.2-0.4-0.3-0.8-0.3-1.1
			C302.1,153.1,302,152.9,302,152.5z"/>
		<path class="st0" d="M399.1,200c0,0.8,0,1.2,0,1.4c0,0.2,0,0.5,0,0.9l-0.6,2.8c-0.2,1.5-0.8,2.3-1.7,2.3c-0.2,0-0.5-0.1-0.9-0.3
			c-0.4,0.6-1,1-1.7,1.4c-0.8,0.6-1.6,1-2.6,1.1c-1.1,0.4-1.9,0.5-2.3,0.3h-2c-0.4,0.2-0.6,0.2-0.6,0c-0.8-0.2-1.3,0-1.7,0.6
			c-0.2,0.4-0.5,0.6-0.9,0.6c-0.8-0.4-1.2-0.1-1.4,0.9c-0.8,0-1.3,0.3-1.7,0.9c-0.2,0.4-0.7,0.7-1.4,0.9c-0.4,0-0.8,0.2-1.3,0.7
			c-0.5,0.5-0.8,0.7-1,0.7c-0.2,0.2-0.5,0.4-0.9,0.6c-0.4,0.2-0.7,0.3-0.9,0.3c-1,0.4-1.6,0.9-2,1.4c-0.6,0.8-1.2,1.2-2,1.4
			c-0.2,0.2-0.6,0.5-1.1,0.9c-0.6,0.4-1,0.7-1.4,0.9c-0.4,0-0.6,0.1-0.6,0.3c-0.2,0.8-0.7,1-1.4,0.9l-0.9,0.3
			c-0.2,0.2-0.5,0.4-0.9,0.6c-0.4,0.2-0.7,0.4-1,0.6c-0.3,0.2-0.5,0.4-0.7,0.6v0.3c-0.2,0-0.4-0.1-0.6-0.3l-1.7,0.9
			c-1.5,0.6-2.8,1.2-3.7,2c-0.4,0.4-0.7,0.6-0.9,0.6c-0.2,0.2-0.5,0.3-1,0.4c-0.5,0.1-0.8,0.2-1,0.4c-0.6,0.2-1.8,0.9-3.7,2
			l-0.9,0.3c-0.6,0.2-1.6,1-3.1,2.3c-0.2,0.2-0.4,0.3-0.6,0.3c-0.8,0-1.7,0.4-2.8,1.1c-1,0.6-2.3,1.3-4,2.3c-1.7,1-2.8,1.5-3.1,1.7
			c-1.1,0.8-2.1,1.2-2.8,1.4c-0.2,0-1.2,0.6-3.1,1.7c-0.4,0.2-0.9,0.5-1.4,0.9c-0.6,0.4-0.9,0.7-1.1,0.9c-0.4,0.2-0.7,0.4-1,0.6
			c-0.3,0.2-0.6,0.3-1,0.4c-0.4,0.1-0.7,0.2-0.9,0.4c-0.6,0.4-1.2,0.8-2,1.3c-0.8,0.5-1.3,0.8-1.6,1c-0.3,0.2-0.8,0.5-1.4,0.9
			c-0.7,0.4-1.2,0.7-1.6,0.9c-0.4,0.4-1.2,1-2.6,2c-1.9,1.5-3.1,2.4-3.7,2.6c-1.5,1-2.7,1.9-3.7,2.8l2.3-0.6
			c0.8-0.2,1.9-0.5,3.4-0.9h0.3c1.1,0,2.4,0,3.7,0c0.2,0,0.5,0,0.9,0c0.4,0,0.7,0,0.9,0.1c0.2,0.1,0.6,0.1,1.3,0
			c0.7-0.1,1.1,0,1.3,0.1c0.4,0,0.9,0.1,1.4,0.3c0.6,0.2,1,0.3,1.1,0.3c0.4,0.2,1,0.3,1.7,0.3c0.8,0,1.3,0.1,1.7,0.3
			c0.2,0,0.8,0.2,1.7,0.6c0.8,0.4,1.3,0.6,1.6,0.7c0.3,0.1,0.5,0.1,0.7,0.1c0.2,0,0.6,0,1.3,0.1c0.7,0.1,1.2,0.1,1.6,0.1
			c0.8,0,1.5,0.2,2.3,0.6c0.2,0,0.9,0,2,0c0.8,0,1.4-0.1,2-0.3c0.2,0,0.9-0.2,2-0.6c0.4,0,0.6,0,0.7,0c0.1,0,0.4,0,0.9-0.1
			c0.5-0.1,0.7,0,0.7,0.1h0.3c1.3-0.6,2.3-0.8,2.8-0.6l0.6-0.3c0.2,0,0.9,0.1,2.3,0.3c0.4,0.2,0.7,0.3,0.9,0.3l0.6-0.3
			c0.2,0.6,0.7,0.9,1.4,0.9l1.4,0.9c0.2-0.2,0.4-0.4,0.6-0.6c0.2-1.3,0.8-2.6,1.7-3.7l0.3,0.6c0.4,0,0.7,0,0.9,0l0.3,0.3h0.3h0.3
			c0.2,0.2,0.6,0.4,1.1,0.6c0.6,0.2,0.9,0.5,1.1,0.9c0.2,0.4,0.2,0.8,0,1.1c0,0.2,0,0.5,0,0.9c0,0.4,0,0.7,0,0.9
			c0,0.2-0.1,0.4-0.3,0.6l-1.1,2.8c-0.2,1.5-0.9,2.3-2,2.3c-0.4,0-0.9-0.2-1.4-0.6c-0.6-0.4-0.9-0.7-0.9-0.9
			c-0.2-0.2-0.5-0.6-0.9-1.1c-0.2,0-0.3-0.1-0.3-0.3c-0.2-0.6-0.5-0.7-0.9-0.3c-0.2,0-0.4,0-0.6,0c-0.2-0.8-0.6-0.8-1.1,0
			c-0.2-0.6-0.5-0.7-0.9-0.3c-0.2,0.2-0.5,0.2-0.9,0c-0.2,0-0.4,0-0.7,0.1c-0.3,0.1-0.5,0.1-0.7,0.1c-0.2,0-0.4,0-0.6,0
			c-0.2,0-0.3-0.1-0.3-0.3c-0.6-0.2-1-0.1-1.4,0.3c-0.6,0.4-1,0.5-1.4,0.3c-1,0.2-1.4,0.2-1.4,0c-0.2-0.2-0.4-0.2-0.6,0
			c-0.2,0.6-0.5,0.6-0.9,0h-0.3l-1.7,0.3v0.3c0-0.2-0.1-0.4-0.3-0.6c-0.6-0.2-1-0.3-1.1-0.3c-0.2,0-0.5,0-1,0c-0.5,0-0.8,0-1,0
			c-0.2,0.2-0.4,0.2-0.6,0h-0.6l-0.6-0.3c-0.2,0-1,0-2.3,0h-0.3h-0.3c-0.2-0.2-0.9-0.1-2,0.3h-0.3c-0.4-0.6-1-0.8-1.7-0.6l-4.3-0.3
			c-0.8,0-1.3-0.2-1.7-0.6c-0.2,0-0.9-0.1-2-0.3c-0.2,0-0.5,0-0.9,0c-0.4,0-0.7,0-0.9,0c-0.2,0-0.5,0-0.9-0.1
			c-0.4-0.1-0.7-0.1-0.9-0.1c-0.2-0.2-0.6-0.3-1.1-0.3c-0.4,0-0.7,0-0.9,0c-0.2,0-0.5,0-1,0c-0.5,0-0.8,0-1,0c-0.2,0-0.8,0-1.7,0
			c-1.3,0.2-2.2,0.3-2.6,0.3c-1.1,0-2.1,0.2-2.8,0.6c-0.2,0-0.7,0.1-1.4,0.3c-1.1,0.2-1.8,0.4-2,0.6l-0.9,0.3c-0.2,0-0.5,0-0.9,0
			c-0.2,0.2-0.4,0.3-0.6,0.3c-1.7,1.1-2.7,1.8-2.8,2c-1.9,0.9-3.3,0.7-4.3-0.9c0.4-0.6,1.1-1.3,2.1-2.1c1-0.9,1.9-1.6,2.4-2.1
			l0.3-0.3l0.3-0.3c0.2,0,0.5-0.2,0.9-0.6c0.4-0.4,0.7-0.7,1-0.9c0.3-0.2,0.6-0.3,1-0.3c1.9-1.3,3.4-2.7,4.6-4.3
			c0.6-0.6,2-1.9,4.3-4c0.2,0,1.8-1.3,4.8-4c0-0.2,0.1-0.3,0.3-0.3c2.3-1.5,4.3-2.8,6-4c0.4-0.2,0.9-0.5,1.6-0.9
			c0.7-0.4,1.1-0.7,1.3-0.9c0.2-0.2,0.8-0.6,1.7-1.1c1-0.6,1.7-1,2.3-1.4c0.4-0.2,1.1-0.5,2.1-1c1-0.5,1.8-0.8,2.1-1
			c0.4-0.2,0.9-0.5,1.7-0.9c0.8-0.4,1.5-0.8,2.1-1.1c0.7-0.4,1.2-0.8,1.6-1.1c0.4-0.2,1.3-0.5,2.8-0.9c0.2-0.2,0.9-0.4,2-0.7
			c1.1-0.3,2-0.6,2.6-1c0.4-0.2,1.1-0.5,2.3-1c1.1-0.5,2-0.9,2.6-1.3c1.1-0.8,2.4-1.3,3.7-1.7c0.6,0,1.8-0.6,3.7-1.7
			c1.1-0.8,2.1-1.4,2.8-2c0.2-0.2,0.5-0.4,0.9-0.7c0.4-0.3,0.8-0.6,1.1-0.9c0.4-0.3,0.7-0.5,0.9-0.7c0.6-0.4,0.9-0.7,0.9-0.9
			c0.4,0,0.8-0.2,1.1-0.6c0.8-0.6,1.4-0.9,2-0.9c0-0.2,0.1-0.3,0.3-0.3c1.7-1.7,3-2.7,4-3.1c0.2,0,0.5-0.2,0.9-0.6
			c0.2-0.2,1.4-0.9,3.7-2c0.2,0,0.5-0.1,0.9-0.3c0.4-0.2,0.7-0.3,0.9-0.3l0.6-0.9c0.8,0.4,1.7,0.2,2.8-0.6c0.2,0,1.1-0.3,2.8-0.9
			l0.6-0.9c-0.6,0-1-0.1-1.1-0.3v0.3c-0.4,0.6-0.7,0.6-0.9,0h-0.3c-0.2,0-0.5,0-0.9,0l-0.6,0.3v0.3c0-0.2-0.1-0.4-0.3-0.6l-0.9-0.3
			c-0.2,0-0.5,0-0.9,0c-0.4,0-0.7,0-0.9,0.1c-0.2,0.1-0.3,0.1-0.4,0.1c-0.1,0-0.3,0-0.6-0.1c-0.3-0.1-0.5-0.2-0.6-0.3
			c-0.1-0.1-0.6-0.1-1.6-0.1l-0.3,0.3c-0.2,0-0.3-0.1-0.3-0.3c-0.2,0-0.8,0.1-1.7,0.3h-0.3c-0.4-0.6-0.9-0.8-1.4-0.6l-3.4-0.3
			c-0.6-0.2-1-0.5-1.4-0.9c-0.2,0-0.8-0.1-1.7-0.3c-0.2,0-0.4,0-0.7,0c-0.3,0-0.5,0-0.7,0c-0.2,0-0.4-0.1-0.6-0.3l-0.6-0.3
			c-0.4,0-0.8,0-1.1-0.1c-0.4-0.1-0.6-0.1-0.7-0.1c-0.1,0-0.3,0-0.7-0.1c-0.4-0.1-0.7-0.1-0.9-0.1c-0.2,0-0.7,0-1.4,0
			c-1,0.2-1.6,0.3-2,0.3c-1-0.2-1.8-0.1-2.6,0.3c-0.2,0-0.6,0-1.1,0c-1,0-1.5,0.1-1.7,0.3c0,0.2-0.2,0.3-0.6,0.3
			c-1-0.2-1.5-0.3-1.7-0.3c-1-0.4-1.3-1.4-1.1-3.1c0.2-0.2,0.6-0.3,1.3-0.4c0.7-0.1,1.1-0.2,1.3-0.4c0.2,0.2,0.5,0.1,0.9-0.1
			c0.4-0.3,0.7-0.2,0.9,0.1c1.1,0.2,2.1,0,2.8-0.6c0.4-0.2,1.2-0.4,2.6-0.6l2.8-0.9c1.7,0.2,2.7,0.3,3.1,0.3
			c0.2,0.2,0.5,0.3,0.9,0.3h0.6c0.2,0,0.5,0,1,0.1c0.5,0.1,0.9,0.1,1.1,0.1s0.6,0.1,1,0.3l1.1,0.6c0.2,0,0.6,0,1.3,0.1
			c0.7,0.1,1.1,0.2,1.3,0.4c0.2,0,0.7,0.2,1.4,0.6c1.1,0.6,1.8,0.9,2,0.9c0.2,0,0.5,0.1,1,0.3c0.5,0.2,0.9,0.3,1.3,0.3
			c0.6-0.2,1.1-0.1,1.7,0.3c0.2,0.2,0.8,0.2,1.7,0c0.6,0,1.1,0,1.7,0c0.2-0.2,0.5-0.4,0.9-0.6l0.6-0.3c0.4-0.2,0.6-0.3,0.7-0.3
			c0.1,0,0.3,0,0.7-0.1c0.4-0.1,0.6,0,0.6,0.1h0.3c0.9-0.6,1.7-0.8,2.3-0.6l0.3-0.3c0.2,0,0.8,0,1.7,0c0.4,0,1-0.2,2-0.6
			c0.9-0.4,1.6-0.5,2-0.3c0.2,0,0.4,0,0.6,0c0-0.4,0.3-1,0.9-2l0.3,0.3c0.2,0.2,0.4,0.3,0.6,0.3h0.3h0.3h0.3
			c0.2,0.2,0.4,0.3,0.6,0.4c0.2,0.1,0.4,0.2,0.7,0.3c0.3,0.1,0.4,0.2,0.4,0.4C399,199,399.1,199.5,399.1,200z"/>
		<path class="st0" d="M605.9,22.4c0,0.8,0,1.2,0,1.4c-0.2,1.3-0.7,3-1.4,5.1c-0.6,1.5-1.3,3.1-2.3,4.8c-1,1.7-2.8,4.6-5.4,8.5
			c-0.6,0.8-1.1,1.6-1.7,2.4c-0.6,0.9-1.1,1.7-1.7,2.6c-0.6,0.9-1,1.7-1.4,2.4c-2.3,3-4,5.4-5.1,7.1c-1,1.1-1.8,2.3-2.6,3.4
			c-0.2,0.2-0.6,0.7-1.3,1.4c-0.7,0.8-1.2,1.3-1.6,1.7c-2.5,3-4.3,5.3-5.4,6.8c-0.6,0.8-1.3,1.7-2.1,2.7c-0.9,1-1.7,2.1-2.6,3.1
			c-0.9,1-1.6,1.9-2.1,2.7c-0.2,0.2-0.7,0.8-1.6,1.9c-0.9,1-1.6,1.9-2.1,2.4c-1.3,1.7-2.6,3.1-3.7,4.3c-3.6,4-5.7,6.4-6.3,7.1
			c-0.4,0.4-2.5,2.7-6.3,6.8l-3.1,3.4l-3.1,3.1c-1,1.1-3,3.3-6.3,6.5c-0.8,1-1.7,1.9-2.8,3c-1.1,1-2.2,2.1-3.3,3.1c-1,1-1.9,2-2.7,3
			l-2.3,2.3l-2.3,2c-0.6,0.6-1.4,1.3-2.4,2.3c-1,1-1.8,1.6-2.1,2c-1.5,1.5-3.7,3.5-6.5,6c-2.8,2.5-4.7,4.1-5.4,4.8
			c-1.3,1.1-3.3,2.9-6,5.3c-2.7,2.4-4.7,4.2-6,5.6c-0.8,0.6-4.1,3.3-10,8.3l-4.3,3.7c-1.1,0.8-2.7,1.9-4.6,3.4
			c-2.3,1.7-5.2,4.1-8.8,7.1c-0.6,0.4-2.9,2.2-7.1,5.4c-1.5,1-2.8,1.9-4,2.8l-4.3,2.6c-3,2.3-5.7,4.1-8,5.4
			c-2.5,1.7-4.9,3.1-7.3,4.1c-2.4,1-4.2,1.7-5.4,2c-1.2,0.3-1.9,0.2-2.1-0.1c1.3-0.9,2.7-2,4.3-3.1c1.5-1.1,3.2-2.3,5.1-3.6
			c1.9-1.2,3.4-2.2,4.6-3c3.4-2.5,5.7-4.1,6.8-4.8c2.7-1.9,4.7-3.5,6.3-4.8c1.9-1.1,4.9-3.3,9.1-6.5c4-3.4,7-5.7,9.1-6.8l3.4-2.6
			l3.4-2.8c3.4-2.8,5.7-4.6,6.8-5.4c2.8-2.5,7-6.4,12.5-11.7c3-2.8,6.8-6.4,11.4-10.5c0.9-0.9,2.7-2.7,5.3-5.3
			c2.6-2.6,4.6-4.5,6.1-5.8c9.3-9.7,17.1-18,23.3-25.1c0.4-0.6,1-1.3,2-2.3c0.4-0.6,4.6-5.4,12.8-14.5c0.8-0.9,1.9-2.3,3.4-4.1
			c1.5-1.8,2.4-2.9,2.6-3.3l3.1-3.7c0.4-0.4,0.9-1,1.7-2c0.8-0.9,1.1-1.5,1.1-1.7c0.4-0.4,2.3-2.7,5.7-7.1c0.6-0.9,2.3-3.3,5.1-7.1
			c2.3-3.2,3.5-4.9,3.7-5.1l3.7-5.4c0.4-0.4,0.9-1.2,1.7-2.4c0.8-1.2,1.3-2.1,1.7-2.7c1.3-1.9,2.4-3.6,3.1-5.1
			c0.9-1.9,1.6-3.5,2-4.8c0.2-0.6,0.2-1,0-1.4l0.3-0.3c-0.4-0.2-0.8-0.3-1.1-0.3c-1,0.2-1.7,0.4-2.3,0.6c-1.7,0.4-3.5,1-5.4,2
			c-2.3,1.1-4.6,2.6-6.8,4.3c-3.8,2.7-6.2,4.3-7.1,4.8c-3,2.5-7.5,6.1-13.4,10.8c-1,0.8-2.2,1.8-3.8,3.1c-1.6,1.3-3.1,2.6-4.6,3.7
			c-1.4,1.1-2.7,2.3-3.8,3.4c-8.4,7.4-14.6,13.2-18.8,17.4c-9.3,9.5-15.9,16.4-19.6,20.8c-4.6,5.3-9.7,10.9-15.4,16.8
			c-3,3.2-7.9,8.7-14.5,16.5c-5.1,6.1-9.1,10.9-12,14.5c-0.6,0.8-1.6,2-3,3.8c-1.4,1.8-2.5,3.2-3.3,4.1c-0.6,0.6-1.3,1.4-2.1,2.4
			c-0.9,1-1.6,2-2.3,3c-0.7,1-1.3,1.8-1.9,2.6c-2.1,2.7-3.5,4.4-4.3,5.1c-0.8,1-2.5,3.1-5.1,6.5c-2.7,3.4-4.8,6-6.5,7.7
			c-0.4,0.4-0.9,1-1.4,2c-4.4,5.7-7.1,9.3-8.3,10.8c-3.2,4.4-6.2,8-8.8,10.8c-0.6,0.8-1.5,2.2-2.8,4.3c-1.9,2.5-4.7,6-8.5,10.7
			c-3.8,4.7-6,7.4-6.5,8.1c-0.6,0.8-1.5,1.9-2.7,3.4c-1.2,1.5-2.1,2.7-2.7,3.4c-0.4,0.6-1.2,1.7-2.6,3.4c1,0,1.9,0,2.8,0
			c0.8-0.4,1.2-0.7,1.4-0.9c2.7-1.7,4.6-3.1,6-4.3c0.9-0.6,2.1-1.5,3.6-2.7c1.4-1.2,2.4-2,3-2.4c1.1-0.8,1.8-1.2,2-1.4
			c0.6-0.4,1.5-1,2.8-2c1.3-0.9,2.5-1.6,3.4-2c0.2-0.2,0.5-0.4,0.9-0.6c4-3.2,7-5.3,9.1-6.3c0.4-0.2,0.9-0.7,1.7-1.4
			c0.6-0.4,3.3-2,8.3-4.8c0.4-0.2,0.8-0.4,1.1-0.6c0.4-0.2,0.7-0.4,1-0.6c0.3-0.2,0.6-0.4,1-0.6l1.7-1.4c1.3,0,3.2-0.8,5.7-2.3
			c0.2-0.2,2.2-1.1,6-2.8l1.4-1.4c-0.2-0.9-0.2-1.7,0-2.1c0.2-0.5,1.1-1.8,2.8-3.8l1.1-0.3c1.5-0.8,2.7-1.3,3.4-1.7
			c0.2,0,0.4,0,0.6-0.1c0.2-0.1,0.4-0.2,0.6-0.4l0.6-0.3h0.3l1.4-0.9c0.6,0,1.5-0.2,2.7-0.6c1.2-0.4,2.1-0.7,2.7-0.9
			c1.5-0.4,2.7-0.5,3.4-0.3c1.7,0,3.1,0.4,4.3,1.1c0.4,0.4,0.7,0.8,0.9,1.1c0.2,0.4,0.4,0.7,0.6,0.9c0,0.6-0.2,0.8-0.6,0.6
			c-0.2,0-0.4,0.1-0.6,0.4c-0.2,0.3-0.4,0.5-0.6,0.7h-1.1c-0.6,0-1.1,0.2-1.7,0.6c-0.2,0.2-0.3,0.4-0.4,0.7
			c-0.1,0.3-0.2,0.5-0.4,0.7c0,0.8-0.5,1.4-1.4,2c-1,0.8-2.1,1.4-3.4,2c-1.3,0.8-2.3,1.2-2.8,1.4c-1.1,0.6-2.2,1-3.1,1.4
			c-2.1,0.8-3.4,1.1-4,1.1c-0.2,0-1.4,0.4-3.7,1.1c-0.2,0-0.4,0.1-0.6,0.3c-0.4,0.2-0.7,0.3-0.9,0.3c-1.1,0-2.3,0.5-3.4,1.4
			c-0.8,0.8-1.3,1.1-1.7,1.1c-1.3,0-2.5,0.7-3.4,2c-1.3,0.4-2.5,1-3.4,2c-0.6,0.6-1.7,1.2-3.4,2c-0.6,0.4-1.4,1-2.6,1.7
			c-1.1,0.8-1.9,1.3-2.3,1.7c-0.4,0.2-1,0.5-1.7,1c-0.8,0.5-1.3,0.8-1.7,1c-2.1,1-3.6,2-4.6,3.1c-1.3,1.1-2.8,2.2-4.3,3.1
			c-0.6,0.2-1.2,0.6-2,1.1c-0.8,0.6-1.5,1-2.1,1.4c-0.7,0.4-1.3,0.8-1.9,1.1c-0.4,0.2-0.8,0.5-1.1,0.9c-0.8,1.1-1.7,1.7-2.8,1.7
			c-0.2,0-0.9,0.4-2,1.1c-1.5,1.1-3.3,2.5-5.4,4v0.3h-0.9c-2.5,1.3-3.8,2.1-4,2.3c-0.2,0.2-0.6,0.5-1.1,0.9c0.4,0.2,0.8,0.5,1.1,0.9
			c0.6,0.6,1.1,1.4,1.7,2.4c0.6,1,0.9,1.8,1.1,2.1c0.2,0.6,0.5,1.1,0.9,1.7l0.9,1.1l0.6,0.3l0.3,0.3c0.2,0,0.3,0,0.4,0.1
			c0.1,0.1,0.3,0.2,0.6,0.3c0.3,0.1,0.5,0.2,0.7,0.4c0.6,0,0.9,0.1,0.9,0.3c1.5,1,3.6,1.4,6.3,1.4c6.1-0.2,11.8-1,17.1-2.6
			c3.2-0.8,5.5-1.2,6.8-1.4c0.8-0.2,3.2-1,7.4-2.6c0.8-0.4,1.9-0.9,3.4-1.6c1.5-0.7,2.5-1.1,2.8-1.3c0.8-0.2,1.9-0.6,3.3-1.1
			c1.4-0.6,2.5-0.9,3.3-1.1c0.8-0.4,3.4-1.7,8-4l6.8-3.1c1.5-0.8,3.7-1.9,6.5-3.4c4.9-2.8,7.9-4.6,8.8-5.1c4.4-2.3,8-4.4,10.8-6.3
			c0.6-0.4,2.1-1.3,4.6-2.8c4.2-2.3,6.7-3.9,7.7-4.8c0.2,0,1.2-0.6,3.1-1.7c4.2-2.1,6.5-3.3,6.8-3.7c1.7-0.8,3.3-1.1,4.7-1.1
			c1.4,0,2.2,0.3,2.4,0.9c-1.1,1-3,2.2-5.6,3.7c-2.6,1.5-4.4,2.8-5.6,3.7c-1,0.4-2.3,1.1-4,2.3c-1.7,1.1-3,1.8-4,2
			c-4.7,2.5-8.7,4.9-12,7.4c-1.3,1-4.9,3.2-10.8,6.8c-4.7,2.8-8.7,5.2-12,7.1c-0.2,0.2-0.5,0.4-0.9,0.6c-5.5,2.7-10.3,4.9-14.2,6.8
			c-0.4,0.2-2.7,1.1-6.8,2.8c-4.9,2.1-8.3,3.4-10,4c-1.3,0.4-4.7,1.2-10,2.6c-5.7,1.3-10.4,2.2-14.2,2.6c-2.1,0-4.4-0.2-6.8-0.6
			c-1.5-0.2-3.3-0.8-5.4-1.7c-1.9-0.9-3.4-2-4.6-3.1c-1-0.9-1.6-1.8-2-2.6l-1.1-2.6c-0.9-2.1-2.1-3.3-3.4-3.7H402
			c-1.1,0.8-1.9,1.2-2.3,1.4c-0.8,0.8-1.4,1.2-2,1.4c-0.4,0.4-0.7,0.6-0.9,0.6l-1.7-2.3l-0.3-0.9c-1.7,1.9-3.9,4.6-6.5,8
			c-0.9,1.1-1.9,2.4-3,3.7c-1,1.3-2.3,2.9-3.7,4.7c-1.4,1.8-2.6,3.2-3.6,4.1c0,0.2-0.2,0.6-0.6,1.1c-0.4,0.6-0.8,1.2-1.1,1.9
			c-0.4,0.7-0.7,1.2-0.9,1.6c0.4,0.9,0.4,2,0,3.1c-0.4,1.1-2.1,4.4-5.1,9.7c-0.2,0.4-0.8,1-1.7,2c-0.8,0.9-1.5,1.9-2.3,2.8
			c-0.8,0.9-1.4,1.8-2,2.6c-0.6,0.8-1,1.5-1.4,2.3c-0.2,0-0.5,0.3-0.9,0.9c-0.4,0.6-0.8,1-1.1,1.4l-1.1,1.7
			c-1.3,1.9-2.1,2.9-2.3,3.1c-1.5,1.7-4,4.8-7.4,9.4c-3.4,4.6-6,7.7-7.7,9.4c-1.7,1.7-2.5,2.2-2.3,1.4c0-0.4-0.3-0.6-0.9-0.6
			c-0.4,0-0.7,0-0.9,0c0-0.2,0.1-0.8,0.3-1.7l1.7-7.7c-0.2-2.3,2.9-7.8,9.4-16.5c2.7-3.8,6-8.3,10-13.4c3.6-4.4,6-7,7.1-8
			c0.4-0.2,2.6-2.7,6.5-7.4c0.2-0.2,0.4-0.5,0.7-0.9c0.3-0.4,0.6-0.7,0.9-0.9c0.3-0.2,0.5-0.4,0.7-0.6c1.9-1.7,3.8-4.1,5.7-7.1
			c1.3-2.1,2.4-3.5,3.1-4.3c2.5-2.1,4.6-4.7,6.3-8c2.3-2.5,4.3-5,6-7.7c1.1-1.9,3-4.5,5.7-7.7c1.3-1.5,3-3.6,5-6.3
			c2-2.7,3.5-4.6,4.4-6c0.6-0.8,1.5-2,2.8-3.7c1.3-1.7,2.4-2.9,3.1-3.7c3.6-4.4,6.5-8,8.5-10.8c2.3-3.6,4.9-7.2,8-10.8
			c0.9-0.9,2.7-3,5.1-6.1c2.5-3.1,4.5-5.6,6-7.3c0.9-0.8,1.7-1.7,2.3-2.8c1.5-2.7,3.3-4.8,5.4-6.5c0.2-0.2,1.4-1.6,3.7-4.3
			c4-4.9,7.5-9.2,10.5-12.8v-0.3l0.3-0.6c0.8-0.6,1.2-0.9,1.4-0.9c4.2-4.7,6.7-7.6,7.7-8.5c1.3-1.5,3.8-4.4,7.4-8.5
			c4-4.6,6.4-7.3,7.1-8.3c1.5-2.1,2.8-3.7,4-4.8c0.6-0.6,1.2-1.3,2-2.1c0.8-0.9,1.4-1.6,2-2.1c0.6-0.6,1.2-1.3,2-2.1
			c0.8-0.9,1.4-1.6,2-2.1c9.9-11,14.9-16.7,15.1-17.1l3.7-3.7c2.1-2.1,4.9-5.1,8.4-9c3.5-3.9,5.6-6.1,6.1-6.7
			c1.1-1.1,1.9-1.9,2.3-2.3c3-2.5,7.5-6.5,13.4-12c5.3-5.3,11.1-10.3,17.4-15.1c3.4-2.7,6.5-4.9,9.1-6.8c3.6-2.7,6.9-4.7,10-6.3
			c3.4-1.9,6.5-2.9,9.1-3.1c2.3-0.2,4.1,0.2,5.4,1.1c0.4,0,0.9,0.3,1.4,0.9c0,0.2,0.2,0.7,0.6,1.4C605.7,21.7,605.9,22.2,605.9,22.4
			z"/>
		<path class="st0" d="M638.3,198.3c2.1-1.3,3.6-1.2,4.6,0.3c-0.4,0.6-0.9,1.2-1.6,1.9c-0.7,0.7-1.3,1.3-2,1.9
			c-0.7,0.6-1.2,1.1-1.6,1.7c-0.6,0.2-1.2,0.7-2,1.6c-0.8,0.9-1.5,1.4-2.3,1.6c-2.3,1.7-4.2,3.4-5.7,5.1c-0.8,0.8-2.6,2.4-5.4,4.8
			c-1.1,1.1-3.1,2.8-6,5.1l-0.3,0.3c-2.7,1.7-5.1,3.3-7.4,4.8c-0.4,0.2-1,0.5-1.9,1c-0.9,0.5-1.5,0.8-1.9,1
			c-2.5,1.7-4.1,2.8-4.8,3.1c-0.6,0.2-1.4,0.6-2.6,1.1c-1.1,0.6-2,1-2.6,1.1c-0.8,0.4-1.9,1-3.4,1.9c-1.5,0.9-2.7,1.5-3.4,1.9
			c-0.4,0.2-1.5,0.7-3.4,1.4c-0.4,0.2-1,0.4-1.7,0.6c-0.8,0.2-1.5,0.4-2.1,0.7c-0.7,0.3-1.2,0.5-1.6,0.7c-0.6,0.4-1.5,0.9-2.8,1.4
			c-1.3,0.6-2.3,1-2.8,1.4c-1.5,1-3.1,1.6-4.8,2c-0.6,0.2-1.4,0.5-2.6,1c-1.1,0.5-1.8,0.8-2,1c-1.3,0.6-2.7,1-4,1.4
			c-2.1,0.8-3.6,1.2-4.6,1.4c-1,0-1.5,0-1.7,0c-0.2-0.2-0.6-0.3-1.1-0.3l-1.1-0.3c-0.6-0.2-1-0.4-1.1-0.6c-0.6-0.4-1-0.7-1.1-0.9
			c0-0.2-0.2-0.4-0.6-0.6c-2.1-1.9-3-4.2-2.8-6.8c0-0.2,0-0.6,0-1.1c-0.2-1.5,0.3-3.5,1.4-6c0-0.2,0.1-0.5,0.4-0.9
			c0.3-0.4,0.4-0.7,0.4-0.9c0-0.2,0.1-0.5,0.3-0.9v-0.6c0.8-0.4,1.6-1.2,2.6-2.6c0.2-0.4,0.9-1.4,2.3-3.1c-2.8,2.1-5.4,4.1-7.7,6
			c-1.1,1-3.7,2.8-7.7,5.7c-3.2,2.1-6.1,4-8.5,5.7c-0.2,0-0.5,0.1-0.9,0.3c-3.8,1.9-7.3,3.6-10.5,5.1c-0.6,0.4-1.4,0.8-2.6,1.1
			c-1.1,0.4-1.9,0.7-2.3,0.9c-3.4,1.5-6,2.5-7.7,2.8c-3,0.8-6,1-8.8,0.9c-0.2,0-0.8-0.1-1.7-0.3c-0.9-0.4-1.6-0.7-2-0.9
			c-0.4-0.2-0.9-0.7-1.7-1.4c-0.6-0.8-0.9-1.4-1.1-2c-0.6-1.3-0.8-2.7-0.6-4c0.2-0.8,0.5-1.8,0.9-3.1c0.6-1.1,1.5-2.6,2.8-4.3
			c0.6-0.8,1.4-1.8,2.6-3.1c1.1-1.3,2-2.3,2.6-2.8c0.6-0.6,1.5-1.6,2.7-3.1c1.2-1.5,2.1-2.7,2.7-3.4c1.1-1.7,2.7-3.4,4.6-5.1
			c0.2-0.2,1.6-1.8,4.3-4.8l3.7-4c0.2-0.4,0.8-1.1,1.7-2.3c0.9-1.1,1.7-2,2.3-2.6c0.6-0.6,1-1,1.3-1.3c0.3-0.3,0.6-0.6,1-1
			c0.4-0.4,0.7-0.7,1-0.9c0.3-0.2,0.6-0.5,1-0.9c0.4-0.4,0.8-0.7,1.1-0.9c0.2,0,0.5-0.1,0.9-0.3c2.5-2.5,4.6-4.2,6.5-5.1
			c0.2-0.2,0.6-0.5,1.1-0.9c1.1-0.9,3.4-2,6.8-3.1c0.2-0.2,0.6-0.3,1.1-0.4c0.6-0.1,1-0.2,1.4-0.4l1.4-0.9c0.8,0.2,1.5,0.3,2.3,0.3
			c0.2,0,0.4,0,0.7-0.1c0.3-0.1,0.6-0.1,1-0.1c0.4,0,0.7,0,0.9,0c1.1-0.2,2.8-0.1,5.1,0.3c0.8-0.2,1.3-0.3,1.7-0.3
			c0.2-0.9,0.6-1.5,1.1-1.7c0.6-0.2,1.1-0.3,1.7-0.3c0.4,0,0.8,0,1.1,0c0.4,0,1,0,2,0c0.2,0.2,0.4,0.5,0.6,0.9l0.3,0.3l0.9,0.6
			c0.2,0.2,0.5,0.5,0.9,0.9c0.4,0.4,0.8,0.9,1.1,1.4c0.4,0.6,0.7,1,0.9,1.1l0.6,1.1c0.4,0.6,0.6,1,0.6,1.4c0.2,0.4,0.3,0.9,0.3,1.4
			v1.1c0,0.2,0,0.7,0,1.4c0,0.6,0,1,0,1.4c-0.2,1-0.4,1.7-0.6,2.3c-0.2,0.6-0.4,1-0.6,1.1c-0.2,0.4-0.4,0.7-0.6,0.9
			c-0.6,0.8-1,0.9-1.4,0.3c-0.2,0-0.4,0-0.7-0.1c-0.3-0.1-0.5-0.1-0.7-0.1c-0.2-0.2-0.4-0.5-0.6-0.9c-0.2,0-0.3-0.2-0.3-0.6
			c-0.4-0.4-0.7-0.7-0.9-0.9c-0.4-0.6-0.8-0.9-1.1-1.1c-0.4-0.2-0.7-0.5-0.9-0.9c-0.2-0.2-0.4-0.5-0.6-0.9c-0.2,0-0.4-0.2-0.6-0.6
			c0-0.2-0.1-0.4-0.3-0.6c-0.4-0.9-0.7-1.5-0.9-1.7l-0.3-0.6c-0.2,0-0.3-0.1-0.3-0.3c-0.4-0.4-0.6-0.7-0.6-0.9
			c-0.2-0.2-0.5-0.4-0.9-0.6c-0.2-0.2-0.4-0.4-0.6-0.6c-0.2,0-0.4-0.1-0.6-0.3c-0.4,0-0.6-0.1-0.6-0.3c-0.4-0.2-0.8-0.4-1.1-0.6
			c-0.4,0-0.9,0.1-1.4,0.3c-0.6,0.2-1,0.3-1.1,0.3c-0.6-0.4-1.1-0.5-1.6-0.3c-0.5,0.2-0.9,0.5-1.3,0.9c-1-0.2-1.8,0-2.6,0.6
			c-0.6,0.4-1.3,0.7-2.3,0.9c-0.4,0.2-0.8,0.4-1.1,0.6c-0.4,0.2-0.7,0.4-1,0.6c-0.3,0.2-0.6,0.4-0.9,0.6c-0.3,0.2-0.6,0.3-0.9,0.4
			c-0.3,0.1-0.7,0.3-1.3,0.6c-0.6,0.3-1,0.5-1.1,0.7c-1.5,0.6-2.7,1.2-3.4,2c-0.8,1.1-1.7,2-2.8,2.6c-0.4,0.2-1,0.7-1.9,1.4
			c-0.9,0.8-1.6,1.2-2.1,1.4c-0.2,0.2-0.4,0.5-0.6,0.9c-0.4,1-1,1.4-1.7,1.4c-0.2,0-0.7,0.4-1.4,1.1c-0.8,0.8-1.8,1.8-3.1,3.1
			c0,0.2,0,0.4,0,0.6c-0.2,0-0.4,0-0.6,0H519c-0.2,0.2-0.6,0.5-1.1,1c-0.6,0.5-1,0.8-1.1,1c-1.9,1.5-3.3,3.1-4.3,4.8
			c-0.4,0.8-0.8,1.2-1.1,1.4c-0.2,0.2-0.6,0.6-1.1,1.1c-0.6,0.6-0.9,1-1.1,1.4c-0.8,1-2.1,2.7-4,5.1c-0.2,0-0.4,0.1-0.6,0.3
			c-0.2,0.6-0.4,0.9-0.6,0.9c-0.8,1-1.9,2.7-3.4,5.1c-0.2,0.4-0.4,0.7-0.6,0.9c-1.1,0.8-2.1,2-2.8,3.7c-1.1,2.5-1.7,4.2-1.7,5.1
			c0,0.4,0.1,0.8,0.3,1.1c0.2,0.4,0.7,0.6,1.4,0.6c0.6,0,1.3,0,2.3,0c1,0,1.7,0,2.3,0c0.8,0.2,2.6-0.3,5.4-1.4
			c0.8-0.2,1.7-0.5,2.7-1c1-0.5,1.8-0.8,2.1-1c0.4-0.2,1.1-0.5,2.3-0.9c1.1-0.4,2-0.7,2.6-0.9c0.8-0.4,2.7-1.3,5.7-2.8
			c3-1.3,4.7-2.1,5.1-2.3c0.8-0.4,2.3-1.2,4.6-2.6c3.8-2.5,5.9-3.8,6.3-4c3.2-1.7,5.9-3.4,8-5.1c0-0.2,0.9-0.9,2.8-2.3
			c1.7-1.3,2.7-2.1,3.1-2.3c0-0.4,0.1-1,0.3-2c0-0.2,0.1-0.3,0.3-0.3h0.3c0.4-0.6,0.9-1.1,1.4-1.7c0.2-0.4,0.3-0.6,0.4-0.6
			c0.1,0,0.1,0,0.1-0.1c0-0.1,0.1-0.1,0.3-0.1l0.3-0.9c0.6-0.2,1.3-0.8,2.1-1.7c0.9-0.9,1.6-1.5,2.3-1.7c0.7-0.2,1.1-0.1,1.3,0.3
			c0.2,0.2,0.4,0.4,0.7,0.6c0.3,0.2,0.5,0.4,0.7,0.6c2.1-0.6,3.4-0.4,4,0.6c-0.6,0.8-1.4,1.6-2.6,2.6c0,0.2,0.1,0.4,0.3,0.6
			c0.8,1.1,0.5,2.7-0.9,4.6c-0.8,1-1.6,1.8-2.6,2.6c-1,1-1.6,1.4-2,1.4c-0.2,0-0.9,0.4-2,1.1l-0.6,0.6c-0.8,0.2-1.2,0.7-1.4,1.4
			c0,0.6-0.2,0.9-0.6,0.9c-0.8,0.4-1,1-0.9,2c-0.8,0.4-1.1,1-1.1,1.7c0.2,0.6,0,1.2-0.6,2c-0.2,0.4-0.3,0.9-0.4,1.6
			c-0.1,0.7-0.2,1.1-0.3,1.3c-0.1,0.2-0.1,0.5-0.1,0.9c0,0.4,0,0.7,0,0.9c-0.4,1-0.3,1.7,0.3,2.3c0.6,0.8,0.9,1.2,0.9,1.4
			c0.2,0.2,0.3,0.4,0.3,0.6c0.2,0.2,0.3,0.3,0.4,0.3c0.1,0,0.2,0,0.4,0c0,0.2,0.1,0.4,0.3,0.6h0.3c0.4-0.4,0.6-0.6,0.7-0.6
			c0.1,0,0.2,0.2,0.4,0.6c0.2,0.2,0.5,0.3,0.9,0.3c0.8-0.2,1.8-0.4,3.1-0.6v-0.3v-0.3c0,0.2,0.1,0.4,0.3,0.6c0.4,0,0.8,0,1.3-0.1
			c0.5-0.1,0.8-0.2,1-0.4c1.5,0,2.9-0.6,4.3-1.7c0.4-0.2,0.8-0.4,1.1-0.6c0.2,0,0.6-0.1,1.1-0.3c0.6-0.2,1-0.4,1.4-0.6
			c0.9-0.4,2.4-1.1,4.3-2.3l0.9-0.6c0.8-0.2,2.1-1,4-2.6l0.6-0.3c1.1-0.2,2.4-0.8,3.7-1.7c0.8-0.6,1.7-1.1,2.7-1.7
			c1-0.6,2.1-1.1,3.3-1.7c1.1-0.6,2.1-1,2.8-1.4c1.3-0.9,2.6-1.5,3.7-1.7c0.2,0,1.4-0.7,3.7-2c0.4-0.2,0.9-0.6,1.7-1.1
			c0.8-0.6,1.3-0.9,1.7-1.1c0.4-0.2,0.9-0.5,1.7-0.9c0.8-0.4,1.3-0.7,1.7-0.9c0.6-0.4,1.4-0.9,2.4-1.4c1-0.6,1.7-0.9,1.9-1.1
			c0.2-0.2,0.5-0.4,1-0.7c0.5-0.3,0.9-0.6,1.4-0.9c0.5-0.3,0.8-0.5,1-0.7c0.6-0.4,1.7-1.1,3.4-2.3c2.5-1.9,4-3,4.6-3.4
			c2.3-1.5,4.1-3,5.4-4.6c0.2-0.2,0.9-0.8,2.3-1.7c2.1-1.7,3.3-2.8,3.7-3.4c0-0.2,0.5-0.7,1.4-1.4
			C636.7,199.4,637.9,198.5,638.3,198.3z"/>
	</g>
	<g>
		<path class="st0" d="M247.4,605.5c0.2,0.9,0.3,2,0.3,3.1c0,3.6-0.6,7-1.7,10.4c-0.8,1.3-1.3,1.9-1.7,1.7c0-0.2-0.2-0.2-0.6,0
			c-0.4,0.2-0.7,0.2-0.8,0c-0.2,0-0.4-0.4-0.6-1.1c-0.9-3.8-1.6-5.8-2-6.2c-0.2-0.2-0.7-1.9-1.4-5.1c-0.4-1.3-0.8-2.3-1.1-2.8
			c-0.2-0.4-0.7-0.8-1.4-1.4c-0.8-0.6-1.8-0.8-3.1-0.8c-1.3,0-2.9,0.3-4.8,0.8c-0.8,0.2-2,0.6-3.7,1.3c-1.7,0.7-3,1.1-3.9,1.3
			c-0.8,0.2-1.9,0.7-3.4,1.4c-1.9,0.9-3.1,1.5-3.7,1.7c-0.2,0.2-0.5,0.3-0.8,0.4c-0.4,0.1-0.7,0.2-0.8,0.4c-0.2,0.2-0.4,0.3-0.6,0.3
			c-1.1,0.4-2.2,0.8-3.2,1.4c-1,0.6-2.1,1.3-3.2,2.3c-1.5,1.3-2.5,2.1-3.1,2.3c-2.4,0.9-4.7,2.6-6.8,5.1c-2.3,1.1-4.2,2.6-5.9,4.5
			c-1.3,1.3-3.4,3-6.2,5.1c-0.9,0.6-1.9,1.4-3,2.4c-1,1-2.1,2.1-3.2,3.1c-1.1,1-2.1,1.8-2.8,2.4c-0.8,0.6-1.7,1.4-3,2.5
			c-1.2,1.1-2.2,2-3,2.5c-3.4,2.8-6.1,5.4-8.2,7.6c-2.4,2.6-5,5.1-7.6,7.3c-0.9,0.9-2,2-3.2,3.2c-1.2,1.2-2.4,2.4-3.5,3.5
			c-1.1,1.1-2.3,2.1-3.4,2.8c-0.8,0.6-1.4,1.2-2,2c-1.3,2.3-2.9,3.9-4.8,4.8c-0.2,0.2-1.3,1.2-3.4,3.1c-2.1,2.3-5.2,5.5-9.3,9.6v0.6
			c-0.8,0.4-1.3,0.7-1.7,0.8c-0.4,0.4-0.8,0.8-1.1,1.1c-0.4,0.4-0.8,0.8-1.1,1.1c-0.4,0.4-0.8,0.8-1.1,1.1c-0.4,0.4-0.7,0.7-1,1
			c-0.3,0.3-0.6,0.6-1,1c-0.4,0.4-0.8,0.7-1.1,0.8c-4.5,4.3-8.6,8.6-12.1,13c-1.3,1.5-2.4,2.7-3.4,3.7c-0.4,0.6-1,1.3-2,2.1
			c-0.9,0.8-1.8,1.6-2.5,2.4c-0.8,0.8-1.4,1.5-2,2.3c-3.4,3.8-7.3,8.4-11.8,13.8l-2.8,3.1c-2.3,2.4-5.7,6.9-10.4,13.2
			c-0.8,1.1-1.3,1.9-1.7,2.3c-2.6,2.8-5.5,6.5-8.7,11c-9,13.9-15.2,24.2-18.6,31c-0.8,1.5-1.8,3.7-3.1,6.5c-1.3,2.8-2.3,4.8-2.8,5.9
			c-1.9,3.6-3.5,8.6-4.8,15.2c-0.4,1.5-0.7,2.6-0.8,3.4c0,0.2,0,0.7-0.1,1.6c-0.1,0.8-0.1,1.5-0.1,1.8l-0.3,3.4
			c-0.2,1.5-0.2,2.6,0,3.4c0,2.6,0.4,4.7,1.1,6.2c0.6,1.1,1.2,2,2,2.5c0.7,0.7,1.6,1.2,2.5,1.4c1.3,0.2,2.7,0.2,4.2,0
			c1.3-0.2,2.7-0.6,4.2-1.1c2.4-0.8,5.2-1.9,8.2-3.4c0.4-0.2,1.4-0.7,3-1.4c1.6-0.8,2.9-1.4,3.8-2c2.8-1.7,5-2.9,6.5-3.7
			c1.3-0.8,3.4-2.1,6.2-3.9c0.9-0.4,2-1,3.1-2l3.1-2c2.3-1.7,7.6-5.8,16.1-12.4c7.5-6,13.9-11.7,19.2-17.2c1.7-1.7,4.1-4.1,7.3-7.3
			c2.4-2.4,4.2-4.2,5.4-5.4c0.6-0.6,1-1.1,1.4-1.7c0.4-0.4,0.8-0.8,1.4-1.4c1.7-1.9,3.1-3.5,4.2-4.8c0.4-0.4,2-2.1,4.8-5.1
			c0.9-1.1,2.1-2.4,3.4-3.8c1.3-1.4,2.6-2.8,3.9-4.2c1.3-1.4,2.4-2.6,3.4-3.5c1.5-1.7,3-3.1,4.5-4.2c1.1-1.3,1.9-2.2,2.3-2.5
			c2.8-2.6,5.8-5.7,9-9.3c0.4-0.4,1.5-1.6,3.4-3.7c3.4-3.4,5.4-5.6,6.2-6.8c0.2-0.2,1-1,2.5-2.5c3.6-3,5.5-4.7,5.9-5.1
			c1.5-1.3,2.9-2.2,4.2-2.5c1.3-0.4,2.2-0.2,2.5,0.6c-0.8,0.9-1.7,2-3,3.1c-1.2,1.1-2.4,2.3-3.5,3.4c-1.1,1.1-2.1,2.2-2.8,3.1
			c-0.8,0.6-1.8,1.7-3.1,3.4c-1.3,1.5-2.4,2.4-3.4,2.8c-3.9,3.8-7,7.2-9.3,10.4c-0.9,1.1-3.7,4.2-8.2,9.3c-0.2,0.2-3.2,3.8-9,10.7
			c-0.2,0.2-0.5,0.5-0.8,0.8c-0.4,0.4-0.9,0.9-1.7,1.7c-0.8,0.8-1.4,1.5-2,2.1c-0.6,0.7-1.1,1.3-1.7,1.8c-0.4,0.4-1.2,1.2-2.4,2.5
			c-1.2,1.3-2.1,2.4-2.7,3.1c-0.8,0.8-1.7,1.7-2.8,3c-1.1,1.2-1.9,2-2.3,2.4c-0.6,0.6-1.3,1.4-2.1,2.4c-0.8,1-1.6,2-2.4,3
			c-0.8,0.9-1.5,1.7-2.1,2.4c-0.7,0.7-1.8,1.8-3.4,3.4c-1.6,1.6-2.8,2.9-3.5,3.8c-1.1,1.3-2.7,3.1-4.7,5.5c-2,2.4-3.4,4.1-4.4,5.2
			c-0.4,0.4-1.8,2-4.2,4.8c-4.5,4.7-6.9,7.2-7,7.6c-0.4,0.6-1.4,1.9-3.1,4.1c-1.7,2.2-2.9,3.8-3.7,4.9c-0.9,1.3-1.9,2.6-2.8,3.9
			c-1.1,1.3-2.1,2.4-2.8,3.4c-0.6,0.9-2.2,3.4-4.8,7.3c-1.1,1.7-1.8,2.8-2,3.4c-0.8,1.1-1.4,2.2-2,3.1c-0.4,0.7-0.8,1.5-1.1,2.4
			c-0.4,0.8-0.8,1.7-1.3,2.7c-0.5,0.9-0.9,1.7-1.3,2.3c-0.6,1.3-0.9,2.1-1.1,2.3c-0.4,0.6-0.9,1.6-1.7,3.1c-0.8,1.5-1.4,2.6-2,3.4
			c-0.2,0.2-0.4,0.5-0.6,0.8c-1.1,2.6-1.9,4.3-2.3,5.1c-0.4,0.7-0.8,1.5-1.1,2.3c-0.6,0.9-1,1.8-1.4,2.5c-0.2,0.4-0.5,1-0.8,2
			c-0.2,0.6-1.8,3.4-4.8,8.5c0,0.2-0.2,0.6-0.7,1.3c-0.5,0.7-0.8,1.2-1,1.6c0,0.2-0.2,0.9-0.6,2.3c-1.1,0.7-2.3,2.4-3.4,5.1
			c-0.4,0.6-0.9,1.5-1.7,2.7c-0.8,1.2-1.3,2.2-1.7,3c0,0.4-0.1,1-0.3,2c0.6,0.6,0.9,1.1,1.1,1.7c0.2,0.6,0.2,2.2,0,4.8l-0.8,0.8
			c-0.8,1.3-1.3,2.4-1.7,3.4c-0.2,0.6-0.3,0.9-0.4,1c-0.1,0.1-0.2,0.3-0.4,0.7l-0.6,1.4c-0.6,0.7-1.3,2.2-2.3,4.2
			c-0.9,2.1-1.7,3.5-2.4,4.2c-0.7,0.7-1.2,0.9-1.6,0.6c-0.2-0.2-0.5-0.3-0.8-0.3c-0.4,0-0.6-0.1-0.6-0.3c-0.2,0-0.4-0.2-0.6-0.6
			c-0.2-0.4-0.4-0.8-0.6-1.4c-0.2-0.6-0.4-1.1-0.6-1.6c-0.2-0.5-0.4-0.8-0.6-1c-1.1-1.1-0.8-3.8,0.8-7.9c0.4-0.9,0.8-2,1.4-3.1
			c0.6-0.9,1.1-2,1.7-3.1c1.1-1.9,2-3,2.5-3.4c0-0.2,0.7-1.3,2.3-3.4c0.2,0,0.4-0.1,0.6-0.3c0.2-0.4,0.3-0.7,0.3-0.8
			c0.9-0.6,1.6-1.6,2-3.1c0.2-0.9,0.5-1.5,0.8-1.7c1.1-0.9,1.7-2.3,1.7-3.9c1.1-0.9,1.8-2.1,2-3.4c0.2-0.9,0.7-2.1,1.7-3.4
			c0.4-0.8,0.8-1.7,1.4-3c0.6-1.2,0.9-2.1,1.1-2.7c0.4-0.4,0.7-0.9,1.1-1.7c0.4-0.8,0.7-1.3,0.8-1.7c1.1-1.9,2-3.6,2.5-5.1
			c0.6-1.7,1.3-3.3,2.3-4.8c0.4-0.6,0.9-1.6,1.7-3c0.7-1.4,1.4-2.5,2-3.2c0.2-0.4,0.4-0.8,0.6-1.1c0-1.3,0.6-2.4,1.7-3.1
			c0.2,0,0.6-0.6,1.1-1.7c0.4-0.8,0.9-1.8,1.7-3.1c0.7-1.3,1.3-2.3,1.7-2.8v-0.3l0.6-0.3l0.3-0.3l2.5-3.7c2.1-2.6,3.8-5.2,5.1-7.6
			c0.4-0.8,0.7-1.4,1.1-2c0.4-0.4,0.9-1,1.6-1.8c0.7-0.8,1.1-1.6,1.3-2.1c0.6-0.6,2.3-3,5.4-7.3l1.1-1.7c0.9-0.9,1.8-2.2,2.5-3.7
			c0.4-0.4,0.8-0.9,1.3-1.7c0.5-0.8,0.9-1.3,1.3-1.7c0.4-0.6,0.7-0.9,0.8-1.1c0.7-0.8,1.7-1.8,2.8-3.1c-2.4,2.3-5.5,4.8-9,7.6
			c-7.7,6-15.4,11.5-23.1,16.3c-0.6,0.4-1.3,0.8-2.3,1.4l-3.4,2c-0.4,0.2-0.8,0.4-1.1,0.6c-0.4,0.2-0.8,0.4-1.3,0.6
			c-0.5,0.2-0.9,0.4-1.3,0.6c-4.7,2.3-7.1,3.5-7.3,3.7c-3.2,1.3-5.9,2.3-8.2,2.8c-0.8,0.2-1.6,0.3-2.5,0.3c-0.2,0-1,0-2.5,0
			c-2.1,0-3.9-0.5-5.6-1.4c-1.7-0.9-3.1-2.3-4.2-3.9c-0.8-1.1-1.4-2.6-2-4.5c-0.8-2.4-1-5.3-0.8-8.5c0.4-4.3,0.8-8,1.4-11
			c0.2-0.6,0.7-2.4,1.4-5.4c0.7-3,1.2-4.7,1.4-5.1c1.7-5.3,4.5-11.6,8.5-18.9c4.3-8.6,9.1-16.8,14.4-24.5c1.3-1.9,3.9-5.4,7.6-10.4
			c1.7-1.9,4-4.6,7-8.2c3-3.6,5.1-6.2,6.2-7.9c1.9-2.3,4.7-5.5,8.5-9.7c3.8-4.2,5.9-6.8,6.5-7.8c3.9-4.3,8.2-8.7,12.7-13.2
			c0.6-0.6,4.7-4.9,12.4-13c1.1-1.3,2.9-3.2,5.4-5.8c2.4-2.5,4-4.2,4.8-4.9c1.1-1.1,2.3-2.4,3.7-3.9c1.3-1.5,2.6-3,3.9-4.4
			c1.3-1.4,2.5-2.7,3.7-3.8c1.7-1.9,2.9-3.2,3.7-3.9c0.4-0.4,1.9-1.8,4.5-4.4c2.6-2.5,4.7-4.5,6.2-5.8c0.4-0.4,0.8-0.8,1.4-1.4
			c6.8-6.9,12.1-12.1,16.1-15.5c0.6-0.4,1.6-1.3,3.1-2.8c2.3-2.3,7.1-6.5,14.7-12.7c0.7-0.6,1.7-1.3,3-2.1c1.2-0.8,2.1-1.6,2.7-2.1
			c0.4-0.4,0.9-0.9,1.7-1.7c0.7-0.7,1.3-1.2,1.7-1.4c1.9-0.7,5.3-2.9,10.1-6.5c2.4-1.7,6.2-3.9,11.3-6.8c0.7-0.6,1.9-1.5,3.4-2.8
			c-0.2-0.9,0.1-1.8,0.8-2.5c0.4-0.4,1.1-1,2.3-2c1.7-1.5,3.4-2.8,5.1-3.9c0.6-0.2,1.3-0.4,2.3-0.6c3.2-1.3,6.2-2,9-2
			c1.1,0,2.3,0.1,3.4,0.3c0.9,0.2,1.8,0.4,2.5,0.6c1.7,0.6,2.9,1.3,3.7,2.3c0.7,0.6,1.5,1.4,2.3,2.5c0.7,1.1,1.3,2.2,1.7,3.1
			C246.9,603.3,247.2,604.4,247.4,605.5z"/>
		<path class="st0" d="M267.7,759.1c3.6-1.7,5.7-1.7,6.5,0c-1.1,0.9-2.8,2.1-4.9,3.4c-2.2,1.3-3.7,2.4-4.7,3.1
			c-0.8,0.4-1.8,1.1-3.2,2.1c-1.4,1-2.6,1.6-3.5,1.8c-3.9,2.3-7.2,4.4-9.9,6.5c-1.3,0.9-4.4,2.8-9.3,5.6c-2.3,1.5-5.6,3.6-10.1,6.2
			c-0.2,0.2-0.5,0.4-0.8,0.6c-4.1,2.1-8.1,4-11.8,5.9c-0.4,0-0.8,0.1-1.3,0.4c-0.5,0.3-0.8,0.5-1.1,0.6c-0.3,0.1-0.6,0.2-1,0.4
			c-0.4,0.2-0.8,0.4-1.1,0.6c-0.4,0.2-0.8,0.4-1.1,0.6c-0.6,0.2-1.8,0.8-3.7,1.7c-1.9,0.9-3.4,1.6-4.5,2c-0.8,0.4-1.6,0.8-2.5,1.1
			c-0.9,0.4-1.9,0.7-3,1c-1,0.3-1.8,0.6-2.4,1c-1.1,0.4-2.9,1.1-5.4,2.1c-2.4,1-4.3,1.8-5.6,2.4c-0.4,0.2-2.2,0.8-5.4,1.7
			c-0.6,0.2-1.4,0.5-2.5,0.8c-1.1,0.4-2.2,0.7-3.1,1c-0.9,0.3-1.9,0.6-2.8,1c-0.4,0.2-3.5,1.2-9.3,3.1c-2.6,0.9-5.3,1.4-7.9,1.4
			c-1.7-0.2-2.9-0.4-3.7-0.6c-1.5-0.4-2.5-1.1-3.1-2.3c-0.6-0.9-0.8-2-0.8-3.1c0-1.1,0.2-2.3,0.6-3.4c0.6-2.3,1.4-4.5,2.5-6.8
			c0.4-0.9,0.8-1.6,1.1-2c0-0.2,0.4-0.9,1.3-2.3c0.8-1.3,1.6-2.3,2.1-2.8c0.2-0.2,0.4-0.5,0.6-0.8c2.1-3.8,3.8-6.4,5.1-7.9
			c0.2-0.2,0.6-0.7,1.1-1.4c0.4-0.9,2.1-3.2,5.1-6.8c0.2-0.2,0.5-0.5,1-1c0.5-0.5,0.8-0.8,1-1l1.1-1.7c1.1-0.4,2.4-1.5,3.9-3.4
			c0.4-0.4,1.8-1.6,4.2-3.7c0-0.2,0.1-0.6,0.3-1.1c0.2-0.4,0.3-0.7,0.3-0.8c-0.6-0.6-0.8-1.1-0.7-1.7c0.1-0.6,0.5-1.9,1.3-3.9
			c0.4-0.2,0.7-0.4,0.8-0.6c0.2-0.2,0.6-0.6,1.1-1.1c0.6-0.6,0.9-0.9,1.1-1.1c0.2,0,0.4-0.1,0.6-0.3c0.2-0.2,0.3-0.3,0.3-0.4
			c0-0.1,0.2-0.2,0.6-0.4l0.8-1.1c0.7-0.4,1.8-1.2,3.2-2.5c1.4-1.3,2.5-2.1,3.4-2.4c0.8-0.3,1.4-0.1,1.6,0.4c0,0.2,0.4,0.5,1.1,0.8
			c0.2,0.2,0.3,0.5,0.3,0.8c0.2,2.4,0.3,3.8,0.3,3.9c0.6,1.3-0.4,3.3-2.8,5.9c-1.1,1.3-2.5,2.6-4.2,3.9c-1.5,1.1-2.5,1.8-3.1,2
			c-0.2,0-1.1,0.6-2.8,1.7l-0.3,0.3l-0.6,0.6c-0.9,0.2-1.8,0.8-2.5,2c-0.4,0.8-0.7,1.2-0.8,1.4c-1.3,0.4-2.1,1.2-2.3,2.5
			c-1.1,0.6-1.9,1.4-2.3,2.5c-0.4,0.8-1,1.6-2,2.5c-0.4,0.4-0.8,0.8-1.1,1.3c-0.4,0.5-0.7,1-1,1.6c-0.3,0.6-0.6,1-1,1.4
			c-0.2,0.2-0.5,0.6-1,1.1c-0.5,0.6-0.8,1-1,1.4c-1.3,1.3-2.3,2.5-2.8,3.7c-0.6,1.5-1.3,2.8-2.3,3.9c-0.4,0.4-0.9,1.1-1.6,2.3
			c-0.7,1.1-1.3,2-1.8,2.5c-0.4,0.2-0.6,0.6-0.6,1.1c-0.2,1.1-0.7,1.9-1.7,2.3l-0.8,1.4c-0.9,1.7-1.6,3.2-2,4.5v0.3
			c-0.2,0.2-0.4,0.4-0.6,0.6c-0.2,0.6-0.4,1.3-0.6,2.3c0,0.6,0.1,0.9,0.3,1.1c0.6,0.4,1.2,0.5,2,0.3c0.6,0,1,0,1.4,0
			c1.7,0,2.9-0.1,3.7-0.3c1.9-0.4,4.2-1,7-2c0-0.2,0.2-0.3,0.6-0.4c0.4-0.1,0.7-0.2,1.1-0.4c0.9-0.2,3-1.1,6.2-2.8
			c0.6-0.4,0.9-0.6,1.1-0.6c1.5-0.2,3.4-0.8,5.6-2c1.5-0.7,3.1-1.5,4.7-2.1c1.6-0.7,3.3-1.4,5.2-2.1c1.9-0.7,3.4-1.4,4.5-2
			c2.3-0.9,4.1-1.6,5.6-2c0.4,0,2.4-0.8,6.2-2.5c0.6-0.4,1.5-0.8,2.7-1.4c1.2-0.6,2.1-1,2.7-1.4c0.6-0.2,1.5-0.5,2.7-1
			c1.2-0.5,2.1-0.8,2.7-1c0.7-0.4,1.5-0.7,2.3-1.1c0.7-0.4,1.6-0.8,2.4-1.3c0.8-0.5,1.6-0.8,2.1-1c0.6-0.2,1.5-0.6,2.8-1.3
			c1.3-0.7,2.3-1.2,3.1-1.5c0.7-0.4,2.5-1.3,5.4-2.8c4.5-2.6,7-4,7.6-4.2c3.9-2.1,7-3.9,9.3-5.6c0.4-0.2,1.7-0.9,3.9-2.3
			c3.4-2.1,5.5-3.5,6.5-4.2c0.2-0.2,1-0.7,2.5-1.4C265.5,760.5,267.3,759.3,267.7,759.1z M224,711.8v-0.3c-0.2-0.6-0.2-1,0-1.4v-0.3
			c0-0.4,0.3-0.7,0.8-1.1c0.2-0.7,0.5-1.4,0.8-2c0-0.2,0.1-0.3,0.3-0.3c0.2-0.2,0.4-0.3,0.6-0.3c0-0.2-0.1-0.4-0.3-0.6
			c-0.2-0.6-0.3-1.2-0.3-2c0.2,0.2,0.4,0.3,0.6,0.3c0.2,0,0.5-0.1,0.8-0.3h0.3h0.3l0.3-0.3c0.2,0.2,0.6,0.3,1.1,0.3h0.6
			c0.2,0.2,0.4,0.3,0.7,0.3s0.5,0.1,0.7,0.3c0.4,0.2,0.7,0.4,0.8,0.6l0.3,0.3h0.3c0.6,0.2,1,0.5,1.4,0.8c0.2,0,0.4,0.1,0.6,0.3
			c0.2,0.2,0.4,0.4,0.6,0.7c0.2,0.3,0.3,0.5,0.4,0.7c0.1,0.2,0.1,0.4,0.1,0.7c0,0.3,0,0.5,0,0.7c0,0.2,0,0.4,0,0.6
			c0,0.2,0,0.4,0,0.6c-0.2,0-0.3,0.1-0.3,0.3c-0.2,0.4-0.3,0.7-0.3,0.8c-0.6,0.8-1.1,1.4-1.7,2c-0.2,0-0.5,0.1-0.8,0.3
			c-0.2,0-0.5,0-0.8,0c-0.2,0-0.3,0.1-0.4,0.4c-0.1,0.3-0.2,0.3-0.4,0.1c-0.6,0.2-0.8,0.6-0.8,1.1l-0.3,1.7l-3.7-1.7
			c-0.8-0.4-1.3-0.8-1.7-1.4c-0.2-0.4-0.3-0.7-0.3-1.1C224.1,712.4,224,712.2,224,711.8z"/>
		<path class="st0" d="M452.9,583.8c0,0.8,0,1.2,0,1.4v1.1c-0.6,2.6-2,5.8-4.2,9.6c-0.2,0.4-1.1,2-2.8,4.8c-0.2,0.4-0.5,0.8-0.8,1.4
			c-0.4,0.6-0.8,1.2-1.1,1.8c-0.4,0.7-0.7,1.2-1,1.5c-0.3,0.4-0.6,0.8-1,1.4c-0.4,0.6-0.7,1.1-1,1.7c-0.3,0.6-0.6,1.1-1,1.7
			l-3.1,4.5c-2.1,3-3.4,5-3.9,5.9c-0.8,1.1-2.7,3.8-5.9,7.9c-1.7,2.3-2.7,3.7-3.1,4.2c-1.1,1.3-2.2,2.5-3.1,3.7
			c-0.6,0.6-1.1,1.3-1.7,2.3c-2.3,3-5.4,7-9.3,11.8c-2.4,3-5.8,6.8-10.1,11.3c-0.4,0.6-1,1.4-1.8,2.4c-0.8,1-1.5,1.6-1.8,1.8
			c-2.3,2.8-5.3,6.1-9,9.9c-2.3,2.1-5.4,5.1-9.3,9c-0.9,0.9-2.2,2.1-3.7,3.4c-1.5,1.3-2.6,2.4-3.4,3.1c-0.2,0-1.6,1.4-4.2,4.2
			c-3,1.9-7.2,5.4-12.7,10.4c-1.9,1.5-4.1,3.3-6.8,5.4c-4.5,3.6-7,5.5-7.3,5.6c0,0.2-0.5,0.8-1.6,1.7c-1,0.9-1.8,1.8-2.4,2.5
			c0.2,0.9-0.1,1.9-0.8,2.8c-0.6,0.8-1.5,1.9-2.8,3.4c-0.4,0.4-0.8,0.8-1.4,1.4c-0.6,0.6-1.3,1.2-2.1,2c-0.8,0.8-1.6,1.5-2.1,2.3
			c-0.4,0.2-0.8,0.4-1.1,0.6c-0.4,0.2-0.7,0.4-0.8,0.6c-0.2,0.2-0.4,0.3-0.6,0.3c-1.7,1.3-4.5,3.4-8.5,6.2c-0.2,0-0.6,0.2-1.1,0.7
			c-0.6,0.5-1,0.8-1.4,1l-2,1.7l-3.1,2.3c-2.3,1.1-6.1,3.5-11.6,7c-4.5,3-8.3,5.2-11.3,6.5c-2.1,0.9-3,1.1-2.8,0.6
			c0-0.2-0.2-0.4-0.6-0.6c-0.4-0.2-0.7-0.3-0.8-0.3c0-0.2,0.3-0.7,0.8-1.4c3.4-4.5,5.1-6.9,5.1-7c0.4-0.7,2.3-2.6,5.6-5.6
			c2.8-2.4,6.2-5,10.1-7.6c2.3-1.7,4.7-3.5,7.3-5.4c0.4-0.2,0.9-0.6,1.7-1.1c0.7-0.6,1.4-1,2-1.4c0.6-0.4,1.2-0.8,1.8-1.3
			c0.7-0.5,1.3-0.9,1.8-1.3c4.9-3.4,8.1-5.4,9.6-6.2c0.4-0.2,3.3-2.2,8.7-5.9c0.2-0.2,0.5-0.4,1-0.7c0.5-0.3,0.8-0.6,1.1-0.8
			c0.3-0.3,0.5-0.4,0.7-0.4c2.3-1.1,4.9-3.2,7.9-6.2c1.9-1.9,3.3-3.1,4.2-3.7c2.8-1.7,5.5-4.1,8.2-7.3c1.5-1.1,2.8-2.2,3.9-3.1
			c1.3-1.1,2.5-2.4,3.7-3.9c1.3-1.3,3.9-3.8,7.6-7.3c1.7-1.5,3.7-3.5,5.9-5.9c2.6-2.8,4.5-4.8,5.6-5.9c0.7-0.7,1.9-2,3.5-3.7
			c1.6-1.7,2.9-3,3.8-3.9c3.9-3.9,7.2-7.6,9.9-11c3-4.3,6-8.1,9-11.3c0.9-1.1,2.9-3.6,5.9-7.3c1.1-1.5,2.1-2.7,2.8-3.7
			c1.3-1.7,2.3-2.9,3.1-3.7c0.7-0.9,1.4-2,2-3.1c1.5-2.8,3.4-5.3,5.6-7.3c0.2-0.2,1.3-1.9,3.4-5.1l2.8-3.7l2.3-3.7
			c0.6-0.7,1.4-2,2.4-3.7c1-1.7,1.8-3,2.4-3.9c0.2-0.4,0.3-0.7,0.3-0.8c0.7-0.7,1.2-1.2,1.4-1.4c1.1-1.9,2.1-3.7,2.8-5.4
			c0.6-1.5,0.7-2.7,0.6-3.7v-0.3H449c-0.2,0-0.4,0-0.6,0c-1.1-0.4-2.8,0-5.1,1.1c-3.2,1.3-6.5,3.2-9.9,5.6c-2.4,1.9-4.1,3.2-5.1,3.9
			c-0.6,0.4-1.1,0.8-1.7,1.3c-0.6,0.5-1.2,0.9-1.8,1.4c-0.7,0.5-1.2,0.9-1.6,1.3c-2.4,1.7-4.1,3-5.1,3.9c-5.6,4.5-11.7,10-18.3,16.4
			c-0.2,0.2-0.6,0.6-1.3,1.1c-0.7,0.6-1.2,1.1-1.6,1.6c-0.4,0.5-0.8,0.9-1.1,1.3c-3.6,3.2-8.8,8.6-15.8,16.3
			c-1.5,1.5-2.4,2.4-2.5,2.8c-3.6,3.2-8.1,7.8-13.5,13.8c-3.2,3.8-6.7,7.7-10.4,11.8c-3.8,4.1-7.8,8.6-12.1,13.2
			c-4.3,4.7-7.8,8.6-10.4,11.6c-5.6,6.2-10,10.8-13,13.8c-2.1,2.1-4.5,4.7-7.3,7.9c-2.4,2.8-4.8,5.6-7,8.5c-1.5,1.7-3.6,4.1-6.2,7.3
			l-5.9,7.3c-0.9,1.1-2.2,2.6-3.8,4.5c-1.6,1.9-3.1,3.7-4.4,5.4c-1.3,1.7-2.5,3.2-3.7,4.5c-3.6,4.5-8.4,11-14.4,19.5
			c-0.8,1.1-1.8,2.7-3.1,4.7c-1.3,2-2.3,3.2-2.8,3.8c-0.8,1.3-2.6,4.1-5.6,8.5c-1.9,3-3.5,5.9-4.8,8.7c-1.9,3.4-3,6.4-3.4,9
			c-0.4,1.3-0.5,2.4-0.3,3.4c0,0.9,0.3,2,0.8,3.1c0.6,0.9,1.3,1.7,2.3,2.3c0.9,0.6,2,0.9,3.1,1.1c1.9,0.4,4.1,0.4,6.8,0
			c2.1-0.2,4.3-0.7,6.8-1.4c4.5-1.3,9.7-3.7,15.5-7c3.6-2.1,8.5-5.2,14.9-9.3c1.1-0.7,5.1-3.2,11.8-7.3c11.1-7,18-11.4,20.9-13.2
			c0.6-0.6,3.3-2.3,8.2-5.1c10.9-6.6,17-10.2,18.3-11c2.8-1.7,5.5-3.1,8-4.2c2.5-1.1,4.5-1.9,5.8-2.3c1.3-0.4,2.1-0.3,2.3,0.3
			c-3.4,2.3-8.5,5.5-15.4,9.9c-6.9,4.3-11.9,7.6-15.1,9.9c-2.3,1.1-5.7,3.2-10.3,6.3c-4.6,3.1-8.2,5.2-10.9,6.3
			c-11.3,6.8-22,13.5-32.1,20.3c-5.5,3.6-10.5,6.4-15.2,8.5c-7,3.2-13.2,4.6-18.6,4.2c-2.3-0.2-4.2-0.7-5.9-1.4
			c-1.1-0.6-2.2-1.2-3.1-2c-0.2-0.2-0.7-0.7-1.4-1.4c-0.4-0.6-0.7-1.1-0.8-1.7c-1.1-2.1-1.6-4.3-1.4-6.8c0.2-1.7,0.6-3.6,1.1-5.6
			c0.9-2.8,2.4-6,4.2-9.6c1.1-2.1,2.7-4.8,4.8-8.2c0.4-0.7,0.9-1.7,1.7-2.8c7.3-11.3,15.6-22.8,24.8-34.7c0.7-0.9,2.8-3.6,6.2-7.9
			c0.2-0.2,2.3-2.7,6.5-7.6c7.1-8.8,13.2-16,18-21.4c1.7-2.1,3.6-4.2,5.6-6.5c2.1-2.3,4.4-4.7,6.9-7.5c2.5-2.7,4.6-4.8,6.1-6.3
			c0.9-0.9,4.6-4.9,10.9-11.8c6.3-7,11.1-12.3,14.5-16.1c1.9-1.9,5.9-6.1,12.1-12.7c2.3-2.3,5.6-5.6,10-10c4.4-4.4,7.7-7.7,9.7-9.7
			c4.9-4.9,12.4-12,22.6-21.4c6.2-5.6,12.8-10.8,19.7-15.5c0.7-0.6,1.7-1.3,3-2.3c1.2-0.9,2.4-1.8,3.5-2.5c1.1-0.7,2.2-1.4,3.1-2
			c2.1-1.3,3.8-2.3,5.4-3.1c2.3-0.9,4.2-1.5,5.9-1.7c0.7-0.2,1.6-0.2,2.5,0l1.4,0.6l0.6,0.3l0.3,0.6
			C452.5,582,452.9,582.9,452.9,583.8z"/>
		<path class="st0" d="M471.5,757.2c2.1-1.3,3.6-1.2,4.5,0.3c-0.4,0.6-0.9,1.2-1.6,1.8c-0.7,0.7-1.3,1.3-2,1.8
			c-0.7,0.6-1.2,1.1-1.6,1.7c-0.6,0.2-1.2,0.7-2,1.6c-0.8,0.8-1.5,1.4-2.3,1.6c-2.3,1.7-4.1,3.4-5.6,5.1c-0.8,0.8-2.5,2.4-5.4,4.8
			c-1.1,1.1-3.1,2.8-5.9,5.1l-0.3,0.3c-2.6,1.7-5.1,3.3-7.3,4.8c-0.4,0.2-1,0.5-1.8,1c-0.8,0.5-1.5,0.8-1.8,1
			c-2.4,1.7-4,2.7-4.8,3.1c-0.6,0.2-1.4,0.6-2.5,1.1c-1.1,0.6-2,0.9-2.5,1.1c-0.8,0.4-1.9,1-3.4,1.8c-1.5,0.8-2.6,1.5-3.4,1.8
			c-0.4,0.2-1.5,0.7-3.4,1.4c-0.4,0.2-0.9,0.4-1.7,0.6c-0.8,0.2-1.5,0.4-2.1,0.7c-0.7,0.3-1.2,0.5-1.6,0.7c-0.6,0.4-1.5,0.8-2.8,1.4
			c-1.3,0.6-2.3,1-2.8,1.4c-1.5,0.9-3.1,1.6-4.8,2c-0.6,0.2-1.4,0.5-2.5,1c-1.1,0.5-1.8,0.8-2,1c-1.3,0.6-2.6,1-3.9,1.4
			c-2.1,0.8-3.6,1.2-4.5,1.4c-0.9,0-1.5,0-1.7,0c-0.2-0.2-0.6-0.3-1.1-0.3l-1.1-0.3c-0.6-0.2-0.9-0.4-1.1-0.6
			c-0.6-0.4-0.9-0.7-1.1-0.8c0-0.2-0.2-0.4-0.6-0.6c-2.1-1.9-3-4.1-2.8-6.8c0-0.2,0-0.6,0-1.1c-0.2-1.5,0.3-3.5,1.4-5.9
			c0-0.2,0.1-0.5,0.4-0.8c0.3-0.4,0.4-0.7,0.4-0.8c0-0.2,0.1-0.5,0.3-0.8v-0.6c0.7-0.4,1.6-1.2,2.5-2.5c0.2-0.4,0.9-1.4,2.3-3.1
			c-2.8,2.1-5.4,4-7.6,5.9c-1.1,0.9-3.7,2.8-7.6,5.6c-3.2,2.1-6,3.9-8.5,5.6c-0.2,0-0.5,0.1-0.8,0.3c-3.8,1.9-7.2,3.6-10.4,5.1
			c-0.6,0.4-1.4,0.8-2.5,1.1c-1.1,0.4-1.9,0.7-2.3,0.8c-3.4,1.5-5.9,2.4-7.6,2.8c-3,0.8-5.9,1-8.7,0.8c-0.2,0-0.7-0.1-1.7-0.3
			c-0.9-0.4-1.6-0.7-2-0.8c-0.4-0.2-0.9-0.7-1.7-1.4c-0.6-0.7-0.9-1.4-1.1-2c-0.6-1.3-0.7-2.6-0.6-3.9c0.2-0.7,0.5-1.8,0.8-3.1
			c0.6-1.1,1.5-2.5,2.8-4.2c0.6-0.7,1.4-1.8,2.5-3.1c1.1-1.3,2-2.3,2.5-2.8c0.6-0.6,1.5-1.6,2.7-3.1c1.2-1.5,2.1-2.6,2.7-3.4
			c1.1-1.7,2.6-3.4,4.5-5.1c0.2-0.2,1.6-1.8,4.2-4.8l3.7-3.9c0.2-0.4,0.7-1.1,1.7-2.3c0.9-1.1,1.7-2,2.3-2.5s1-1,1.3-1.3
			c0.3-0.3,0.6-0.6,1-1c0.4-0.4,0.7-0.7,1-0.8c0.3-0.2,0.6-0.5,1-0.8c0.4-0.4,0.7-0.7,1.1-0.8c0.2,0,0.5-0.1,0.8-0.3
			c2.4-2.4,4.6-4.1,6.5-5.1c0.2-0.2,0.6-0.5,1.1-0.8c1.1-0.9,3.4-2,6.8-3.1c0.2-0.2,0.6-0.3,1.1-0.4c0.6-0.1,1-0.2,1.4-0.4l1.4-0.8
			c0.7,0.2,1.5,0.3,2.3,0.3c0.2,0,0.4,0,0.7-0.1c0.3-0.1,0.6-0.1,1-0.1c0.4,0,0.7,0,0.8,0c1.1-0.2,2.8-0.1,5.1,0.3
			c0.7-0.2,1.3-0.3,1.7-0.3c0.2-0.9,0.6-1.5,1.1-1.7c0.6-0.2,1.1-0.3,1.7-0.3c0.4,0,0.7,0,1.1,0c0.4,0,1,0,2,0
			c0.2,0.2,0.4,0.5,0.6,0.8l0.3,0.3l0.8,0.6c0.2,0.2,0.5,0.5,0.8,0.8c0.4,0.4,0.7,0.8,1.1,1.4c0.4,0.6,0.7,0.9,0.8,1.1l0.6,1.1
			c0.4,0.6,0.6,1,0.6,1.4c0.2,0.4,0.3,0.8,0.3,1.4v1.1c0,0.2,0,0.7,0,1.4c0,0.6,0,1,0,1.4c-0.2,0.9-0.4,1.7-0.6,2.3
			c-0.2,0.6-0.4,0.9-0.6,1.1c-0.2,0.4-0.4,0.7-0.6,0.8c-0.6,0.8-1,0.8-1.4,0.3c-0.2,0-0.4,0-0.7-0.1c-0.3-0.1-0.5-0.1-0.7-0.1
			c-0.2-0.2-0.4-0.5-0.6-0.8c-0.2,0-0.3-0.2-0.3-0.6c-0.4-0.4-0.7-0.7-0.8-0.8c-0.4-0.6-0.8-0.9-1.1-1.1c-0.4-0.2-0.7-0.5-0.8-0.8
			c-0.2-0.2-0.4-0.5-0.6-0.8c-0.2,0-0.4-0.2-0.6-0.6c0-0.2-0.1-0.4-0.3-0.6c-0.4-0.9-0.7-1.5-0.8-1.7l-0.3-0.6
			c-0.2,0-0.3-0.1-0.3-0.3c-0.4-0.4-0.6-0.7-0.6-0.8c-0.2-0.2-0.5-0.4-0.8-0.6c-0.2-0.2-0.4-0.4-0.6-0.6c-0.2,0-0.4-0.1-0.6-0.3
			c-0.4,0-0.6-0.1-0.6-0.3c-0.4-0.2-0.8-0.4-1.1-0.6c-0.4,0-0.8,0.1-1.4,0.3c-0.6,0.2-0.9,0.3-1.1,0.3c-0.6-0.4-1.1-0.5-1.6-0.3
			c-0.5,0.2-0.9,0.5-1.3,0.8c-0.9-0.2-1.8,0-2.5,0.6c-0.6,0.4-1.3,0.7-2.3,0.8c-0.4,0.2-0.8,0.4-1.1,0.6c-0.4,0.2-0.7,0.4-1,0.6
			c-0.3,0.2-0.6,0.4-0.8,0.6c-0.3,0.2-0.6,0.3-0.8,0.4c-0.3,0.1-0.7,0.3-1.3,0.6c-0.6,0.3-0.9,0.5-1.1,0.7c-1.5,0.6-2.6,1.2-3.4,2
			c-0.8,1.1-1.7,2-2.8,2.5c-0.4,0.2-1,0.7-1.8,1.4c-0.8,0.8-1.6,1.2-2.1,1.4c-0.2,0.2-0.4,0.5-0.6,0.8c-0.4,0.9-0.9,1.4-1.7,1.4
			c-0.2,0-0.7,0.4-1.4,1.1c-0.8,0.8-1.8,1.8-3.1,3.1c0,0.2,0,0.4,0,0.6c-0.2,0-0.4,0-0.6,0h-0.3c-0.2,0.2-0.6,0.5-1.1,1
			c-0.6,0.5-0.9,0.8-1.1,1c-1.9,1.5-3.3,3.1-4.2,4.8c-0.4,0.8-0.7,1.2-1.1,1.4c-0.2,0.2-0.6,0.6-1.1,1.1c-0.6,0.6-0.9,1-1.1,1.4
			c-0.7,0.9-2.1,2.6-3.9,5.1c-0.2,0-0.4,0.1-0.6,0.3c-0.2,0.6-0.4,0.8-0.6,0.8c-0.7,0.9-1.9,2.6-3.4,5.1c-0.2,0.4-0.4,0.7-0.6,0.8
			c-1.1,0.8-2.1,2-2.8,3.7c-1.1,2.4-1.7,4.1-1.7,5.1c0,0.4,0.1,0.8,0.3,1.1c0.2,0.4,0.7,0.6,1.4,0.6c0.6,0,1.3,0,2.3,0
			c0.9,0,1.7,0,2.3,0c0.8,0.2,2.5-0.3,5.4-1.4c0.8-0.2,1.6-0.5,2.7-1c1-0.5,1.7-0.8,2.1-1c0.4-0.2,1.1-0.5,2.3-0.8
			c1.1-0.4,2-0.7,2.5-0.8c0.7-0.4,2.6-1.3,5.6-2.8c3-1.3,4.7-2.1,5.1-2.3c0.7-0.4,2.3-1.2,4.5-2.5c3.8-2.4,5.8-3.8,6.2-3.9
			c3.2-1.7,5.8-3.4,7.9-5.1c0-0.2,0.9-0.9,2.8-2.3c1.7-1.3,2.7-2.1,3.1-2.3c0-0.4,0.1-1,0.3-2c0-0.2,0.1-0.3,0.3-0.3h0.3
			c0.4-0.6,0.8-1.1,1.4-1.7c0.2-0.4,0.3-0.6,0.4-0.6c0.1,0,0.1,0,0.1-0.1c0-0.1,0.1-0.1,0.3-0.1l0.3-0.8c0.6-0.2,1.3-0.7,2.1-1.7
			c0.8-0.9,1.6-1.5,2.3-1.7c0.7-0.2,1.1-0.1,1.3,0.3c0.2,0.2,0.4,0.4,0.7,0.6c0.3,0.2,0.5,0.4,0.7,0.6c2.1-0.6,3.4-0.4,3.9,0.6
			c-0.6,0.8-1.4,1.6-2.5,2.5c0,0.2,0.1,0.4,0.3,0.6c0.7,1.1,0.5,2.6-0.8,4.5c-0.8,0.9-1.6,1.8-2.5,2.5c-0.9,0.9-1.6,1.4-2,1.4
			c-0.2,0-0.8,0.4-2,1.1l-0.6,0.6c-0.8,0.2-1.2,0.7-1.4,1.4c0,0.6-0.2,0.8-0.6,0.8c-0.8,0.4-1,1-0.8,2c-0.8,0.4-1.1,0.9-1.1,1.7
			c0.2,0.6,0,1.2-0.6,2c-0.2,0.4-0.3,0.9-0.4,1.6c-0.1,0.7-0.2,1.1-0.3,1.3c-0.1,0.2-0.1,0.5-0.1,0.8c0,0.4,0,0.7,0,0.8
			c-0.4,0.9-0.3,1.7,0.3,2.3c0.6,0.8,0.8,1.2,0.8,1.4c0.2,0.2,0.3,0.4,0.3,0.6c0.2,0.2,0.3,0.3,0.4,0.3c0.1,0,0.2,0,0.4,0
			c0,0.2,0.1,0.4,0.3,0.6h0.3c0.4-0.4,0.6-0.6,0.7-0.6c0.1,0,0.2,0.2,0.4,0.6c0.2,0.2,0.5,0.3,0.8,0.3c0.7-0.2,1.8-0.4,3.1-0.6v-0.3
			V804c0,0.2,0.1,0.4,0.3,0.6c0.4,0,0.8,0,1.3-0.1c0.5-0.1,0.8-0.2,1-0.4c1.5,0,2.9-0.6,4.2-1.7c0.4-0.2,0.7-0.4,1.1-0.6
			c0.2,0,0.6-0.1,1.1-0.3c0.6-0.2,1-0.4,1.4-0.6c0.9-0.4,2.3-1.1,4.2-2.3l0.8-0.6c0.7-0.2,2.1-1,3.9-2.5l0.6-0.3
			c1.1-0.2,2.3-0.7,3.7-1.7c0.7-0.6,1.6-1.1,2.7-1.7c1-0.6,2.1-1.1,3.2-1.7c1.1-0.6,2.1-1,2.8-1.4c1.3-0.9,2.5-1.5,3.7-1.7
			c0.2,0,1.4-0.7,3.7-2c0.4-0.2,0.9-0.6,1.7-1.1c0.7-0.6,1.3-0.9,1.7-1.1c0.4-0.2,0.9-0.5,1.7-0.8c0.7-0.4,1.3-0.7,1.7-0.8
			c0.6-0.4,1.4-0.8,2.4-1.4c1-0.6,1.6-0.9,1.8-1.1c0.2-0.2,0.5-0.4,1-0.7c0.5-0.3,0.9-0.6,1.4-0.8c0.5-0.3,0.8-0.5,1-0.7
			c0.6-0.4,1.7-1.1,3.4-2.3c2.4-1.9,3.9-3,4.5-3.4c2.3-1.5,4-3,5.4-4.5c0.2-0.2,0.9-0.7,2.3-1.7c2.1-1.7,3.3-2.8,3.7-3.4
			c0-0.2,0.5-0.7,1.4-1.4C469.9,758.2,471.1,757.4,471.5,757.2z"/>
		<path class="st0" d="M500,752.9c0,1.1-0.3,2.1-0.8,2.8c-0.4,0.6-0.8,1.4-1.4,2.4c-0.6,1-0.9,1.7-1.1,2c-0.2,0.3-0.5,0.8-1,1.6
			c-0.5,0.8-0.8,1.3-1.1,1.7c-0.3,0.4-0.7,0.9-1.3,1.5c-0.6,0.7-1,1.2-1.4,1.6c-0.4,0.4-0.9,1-1.6,2c-0.7,0.9-1.1,1.6-1.3,2
			c-0.2,0.2-0.6,0.7-1.3,1.5c-0.7,0.8-1.2,1.5-1.6,1.8c-0.6,0.9-1.2,2.1-2,3.4c-0.2,0.4-0.6,1.2-1.3,2.4c-0.7,1.2-1.2,2.1-1.6,2.7
			c-1.3,2.3-2.3,4.4-2.8,6.5c-0.2,0.4-0.6,1.3-1.1,2.8c-0.8,2.4-1.1,4.1-1.1,5.1l-0.6,1.7c-0.2,0.6-0.4,1.3-0.6,2.3
			c-0.2,0.9-0.4,1.6-0.6,2c-0.8,2.4-2,3.5-3.7,3.1c0-1.1,0.1-2.6,0.3-4.4c0.2-1.8,0.3-3,0.3-3.5c0.4-0.6,0.7-1.5,0.8-2.7
			c0.2-1.2,0.5-2,0.8-2.4c1.3-3.2,2.2-5.8,2.5-7.9c0.4-1.5,1.3-3.8,2.8-6.8c1.1-2.4,2.3-4.9,3.7-7.3c0.2-0.2,0.4-0.4,0.6-0.6
			c0.6-1.1,2.3-3.5,5.1-7c0.2-0.4,0.6-0.9,1.1-1.7c0.6-0.7,1-1.3,1.4-1.7c0.4-0.6,0.9-1.4,1.6-2.4c0.7-1,1.1-1.7,1.3-2.1
			c0-0.2,0.1-0.4,0.3-0.6h-0.3c-0.8,0.2-1.8,0.5-3.1,0.8c-0.4,0.2-0.9,0.4-1.7,0.6c-0.8,0.2-1.3,0.4-1.7,0.6c-3,0.9-4.8,1.6-5.4,2
			c-0.4,0.2-1.3,0.6-2.7,1.3c-1.4,0.7-2.4,1.3-3,1.8c-1.3,0.8-2.8,1.6-4.5,2.5c-0.8,0.4-2.2,1.3-4.2,2.8c-1.3,0.9-2.4,1.8-3.1,2.5
			c-0.8,0.8-1.9,2-3.4,3.7c-0.4,0.6-0.7,0.8-0.8,0.8c-0.4,0.2-0.9,0.7-1.6,1.4c-0.7,0.8-1.2,1.2-1.6,1.4c-0.2,0-0.4,0.1-0.6,0.3
			c-2.1,2.6-3.5,4.1-4.2,4.5c-0.2,0.2-0.4,0.6-0.6,1.1c-0.6,0.6-1.4,1.3-2.4,2.1c-1,0.8-1.6,1.4-1.6,1.5c-0.2,0.2-0.5,0.4-0.8,0.6
			c-0.4,0.2-0.7,0.4-0.8,0.6l-0.6,1.1c-0.7,0-1.7,0.7-2.8,2c-0.2,0-1.1,0.8-2.8,2.3c-0.2,0.2-0.4,0.6-0.6,1.1c0.8,0.9,1,2.5,0.8,4.8
			h-0.6c-0.7,0.8-1.2,1.3-1.4,1.7h-0.3l-0.3,0.3v0.3l-0.3,0.3c-0.2,0.4-0.4,0.6-0.6,0.6c-0.4,0.2-1,0.8-2,1.7
			c-0.9,0.9-1.7,1.5-2.3,1.7c-0.6,0.2-0.9,0.1-1.1-0.3h-0.3c-0.4,0.6-0.6,0.9-0.7,1c-0.1,0.1-0.2,0.2-0.4,0.3
			c-0.2,0.1-0.4,0.2-0.6,0.4l-0.3,0.8c-0.6-0.2-1.1,0.1-1.7,0.8c-0.2,0.2-0.8,0.7-2,1.4v0.8c0.9,0.8,1.6,2,2,3.7c-0.2,0-0.4,0-0.6,0
			c-0.4,0.4-0.7,0.7-0.8,0.8l-0.3,0.3l-0.3,0.3l-0.3,0.6c-0.4,0-0.7,0.1-1,0.4c-0.3,0.3-0.6,0.5-0.8,0.7c-0.3,0.2-0.6,0.3-1,0.3
			c-0.6,0.2-1,0.1-1.4-0.3c0-0.2-0.1-0.4-0.4-0.6c-0.3-0.2-0.5-0.4-0.7-0.6c-0.2,0-0.4-0.2-0.6-0.6l-1.4-2.5
			c-1.1-1.1-1.2-2.3-0.3-3.4c0.4-0.6,0.9-1,1.7-1.4c0.6-0.4,1-0.6,1.4-0.6c0.2,0,0.7-0.1,1.4-0.3c0.2-0.2,0.4-0.3,0.6-0.3
			c0.6,0,0.9-0.3,1.1-0.8c0-0.4,0.1-0.6,0.3-0.6c0.8,0.2,1-0.1,0.8-0.8c0.4-0.2,0.6-0.3,0.7-0.4c0.1-0.1,0.1-0.3,0.1-0.7
			c0-0.4,0.3-0.7,0.8-0.8c0.2-0.2,0.5-0.7,0.8-1.7c0.2-0.2,0.3-0.4,0.4-0.6c0.1-0.2,0.2-0.3,0.4-0.3c-0.9-1.3-0.7-2.9,0.8-4.8
			c0.9-1.1,1.9-2.1,2.8-2.8c0.9-0.7,1.7-1.2,2.3-1.4h-0.3c0.2,0,0.4,0,0.6,0h0.3c0.4-0.6,0.7-0.8,0.8-0.8c0.9-0.7,1.5-1.6,1.7-2.5
			c0.2-0.2,0.3-0.4,0.4-0.6c0.1-0.2,0.3-0.4,0.7-0.6c0.2-0.2,0.4-0.3,0.6-0.4c0.2-0.1,0.8-0.9,2-2.4l0.3-0.6
			c0.4-0.2,0.9-0.9,1.7-2.3l0.3-0.3c0.8-0.2,1.4-0.7,2-1.4c0-0.2,1.3-1.7,3.9-4.5c0.8-0.6,1.4-0.9,2-1.1c0.2-0.2,0.8-0.8,2-2
			c0.2-0.2,0.4-0.5,0.7-0.8c0.3-0.4,0.5-0.7,0.7-0.8c0.2-0.2,0.5-0.4,1-0.7c0.5-0.3,0.7-0.5,0.7-0.7c0.4-0.4,0.8-0.8,1.4-1.4
			c0.4-0.4,0.7-0.7,0.8-0.8c0-0.2,0.2-0.5,0.7-0.8c0.5-0.4,0.8-0.7,1-0.8c0.2-0.4,0.7-1,1.4-2c0.9-1.3,1.6-2.2,2-2.5
			c1.1-1.1,2-2.3,2.5-3.4c0-0.2,0.3-0.7,0.8-1.4c0.9-1.3,1.5-2.2,1.7-2.5c0-0.2,0.2-0.5,0.6-0.8c1.1-1.1,1.7-1.8,1.7-2
			c1.1-0.9,2.4-0.8,3.9,0.3c-0.2,0.6-0.6,1.3-1.1,2.1c-0.6,0.8-0.9,1.5-1.1,1.8c-0.4,0.2-0.7,0.6-0.8,1.3c-0.2,0.7-0.6,1-1.1,1
			c-1.1,1.3-1.9,2.6-2.3,3.9c-0.2,0.6-0.6,1.2-1.1,2c0.6-0.4,0.9-0.7,1.1-0.8c0.4-0.4,0.7-0.7,1.1-0.8c0.2-0.2,0.6-0.4,1.1-0.7
			c0.6-0.3,1-0.5,1.4-0.7c0.4-0.4,1.1-0.8,2.1-1.4c1-0.6,1.7-1,2.1-1.4l1.1-0.6c0.6-0.2,1.9-1,3.9-2.5c0.4-0.4,0.7-0.6,0.8-0.6
			c0.9,0,2.3-0.5,3.9-1.4c1.5-1.1,3.2-1.9,5.1-2.3c1.1-0.4,2.2-0.6,3.1-0.6c1.5,0,2.7,0.3,3.7,0.8c0.6,0.4,1.1,0.8,1.7,1.1
			C499.5,751.5,499.8,752.2,500,752.9z M494.6,754.6c0.2,0.2,0.4,0.3,0.6,0.3L494.6,754.6z"/>
		<path class="st0" d="M618.1,861.2c0.4,2.3,0.4,3.3,0,3.2c-0.4-0.1-0.8,0.2-1.1,1c-0.2,0-0.7-0.4-1.4-1.1c-0.4-0.4-0.8-1-1.4-2
			c-0.2,0-0.5-0.3-0.8-0.8l-0.8-0.8c-1.3-1.3-2.3-2.2-2.8-2.5c-0.6-0.2-1.3-0.8-2.3-1.7c-0.4-0.6-0.8-1.1-1.4-1.7
			c-0.9-0.9-1.6-1.6-2-2l-3.9-3.9l-0.6-0.6l-0.6-0.6c-0.6-0.4-0.9-0.7-1.1-0.8c-0.2-0.2-0.6-0.6-1.1-1.1c-0.6-0.4-1-0.7-1.4-0.8
			c-4.1-3.4-9-6.3-14.7-8.7c-0.8-0.2-1.2-0.3-1.4-0.4c-0.2-0.1-0.4-0.2-0.7-0.3c-0.3-0.1-0.5-0.2-0.7-0.4c-1.5-0.6-2.4-0.8-2.5-0.8
			c-0.4-0.2-0.7-0.3-1-0.4c-0.3-0.1-0.6-0.2-1-0.3c-0.4-0.1-0.7-0.2-0.8-0.4c-0.9-0.2-1.7-0.5-2.3-0.8c-0.8-0.4-2.3-0.8-4.5-1.4
			c-0.2,0-0.5,0-1-0.1c-0.5-0.1-0.8-0.2-1.1-0.3c-0.3-0.1-0.5-0.1-0.7-0.1c-0.4,0-0.9-0.1-1.6-0.3c-0.7-0.2-1.1-0.3-1.3-0.3
			c-0.4,0-0.8,0-1.1-0.1c-0.4-0.1-0.7-0.1-1-0.1c-0.3,0-0.6,0-0.8-0.1c-0.3-0.1-0.5-0.1-0.7-0.1c-1.3-0.4-2.8-0.6-4.5-0.6
			c-0.9-0.2-2.8-0.2-5.6,0c-0.4,0-1,0-1.8,0.1c-0.8,0.1-1.6,0.1-2.3,0.1c-0.7,0-1.1,0-1.3,0h-0.3c-2.6,4.1-4.9,7.8-6.8,11
			c-4.7,7.5-11.3,17.3-19.7,29.3c-7.7,10.9-15.5,21.3-23.4,31.3c-0.6,0.6-1.3,1.4-2.3,2.5c-10,11.8-19.7,22.7-29.3,32.7
			c-3.8,3.9-8.5,8.7-14.4,14.4c-8.1,7.9-15.2,14.5-21.4,19.7c-2.4,2.3-6.1,5.3-11,9c-3.6,3-7.3,5.9-11.3,8.7
			c-6,4.5-11.6,8.1-16.6,10.7c-6.6,3.8-12.9,6.2-18.9,7.3c-3.4,0.7-6.6,0.9-9.6,0.6c-2.1-0.2-3.8-0.5-5.1-0.8
			c-1.7-0.8-3.2-1.7-4.5-2.8c-2.1-1.9-3.4-4.3-3.9-7.3c-0.4-2.3-0.4-4.8,0-7.6c0.6-3.9,1.8-8.7,3.7-14.4c3-8.3,7.7-17.9,14.1-28.8
			c4.5-7.5,9.5-14.6,14.9-21.1c8.5-10.1,13.8-16.3,16.1-18.6c0.9-1.1,2.3-2.6,4.1-4.5c1.8-1.9,2.9-2.9,3.2-3.1
			c1.5-1.5,3.9-3.9,7.3-7.3c0.4-0.4,1.6-1.5,3.7-3.4c2.1-1.9,3.8-3.4,5.1-4.5c0.2-0.2,0.8-0.8,1.8-1.7c1-0.9,1.8-1.6,2.4-2l4.2-3.7
			c1.9-1.5,3.9-3,5.9-4.5c8.1-5.8,13.8-9.7,17.2-11.6c0.9-0.6,1.8-1,2.5-1.4c9.8-6.6,18.8-11.7,27.1-15.2c2.8-1.1,4.6-1.9,5.4-2.3
			c7.1-3.4,15.8-6.5,25.9-9.3c0.2,0,1.7-0.4,4.5-1.1c0.6,0,1.4-0.1,2.4-0.4c1-0.3,1.8-0.5,2.4-0.7c0.2,0,2.3-0.6,6.2-1.7
			c2.1,0,4.6-0.2,7.6-0.6c1.3,0,2.8-0.1,4.5-0.3c0.7-0.2,1.6-0.3,2.5-0.3c0.7-0.2,1.2-0.3,1.4-0.3c0.9-1.1,2.2-2.9,3.7-5.4
			c1.5-2.4,2.4-3.9,2.8-4.5c6.4-10,10.8-17.3,13.2-22c0.2-0.2,2-3,5.4-8.5c0.7-1.1,2.5-3.9,5.2-8.3c2.7-4.4,4.8-7.8,6.3-10.3
			c1.7-2.6,3.4-5,5.1-7c-0.4,0.2-0.7,0.4-0.8,0.6c-0.6,0.4-1.4,1.1-2.5,2.1c-1.1,1-2.1,1.6-2.8,1.8c-3.2,2.1-5.9,4.1-8.2,6.2
			c-1.1,0.9-3.7,2.8-7.6,5.6c-3.2,2.1-6,3.9-8.5,5.6c-0.2,0-0.5,0.1-0.8,0.3c-3.8,1.9-7.2,3.6-10.4,5.1c-0.6,0.2-1.4,0.5-2.5,1
			c-1.1,0.5-2,0.8-2.5,1c-3.4,1.5-5.8,2.4-7.3,2.8c-3,0.8-5.9,1-8.7,0.8c-0.2,0-0.8-0.1-1.7-0.3c-0.9-0.4-1.6-0.7-2-0.8
			c-0.6-0.4-1.1-0.8-1.7-1.4c-0.6-0.7-0.9-1.4-1.1-2c-0.6-1.3-0.7-2.6-0.6-3.9c0.2-0.9,0.5-2,0.8-3.1c0.6-1.1,1.5-2.6,2.8-4.5
			c0.6-0.6,1.4-1.5,2.5-2.8c1.1-1.3,2-2.3,2.5-2.8c0.4-0.6,0.9-1.3,1.6-2.1c0.7-0.8,1.3-1.6,2-2.4c0.7-0.7,1.3-1.4,1.8-2
			c1.1-1.7,2.6-3.4,4.5-5.1c0.2-0.2,1.6-1.8,4.2-4.8c2.3-2.6,3.5-3.9,3.7-3.9c0.2-0.4,0.6-0.9,1.1-1.6c0.6-0.7,1-1.2,1.4-1.7
			c0.4-0.5,0.7-1,1.1-1.6c0.7-0.6,1.2-1,1.4-1.4c2.3-1.9,3.7-3,4.2-3.4c0.2,0,0.4-0.1,0.6-0.3c2.6-2.6,4.9-4.3,6.8-5.1
			c0.2-0.2,0.6-0.5,1.1-0.8c1.1-0.9,3.4-2.1,6.8-3.4c0.2,0,0.4,0,0.7-0.1c0.3-0.1,0.6-0.2,0.8-0.3c0.3-0.1,0.5-0.1,0.7-0.1
			c0.2,0,0.7-0.3,1.7-0.8c0.6,0.2,1.3,0.3,2.3,0.3c0.2-0.2,0.6-0.3,1.3-0.4c0.7-0.1,1.1-0.1,1.3-0.1c1.1-0.2,2.8-0.1,5.1,0.3
			c0.7,0,1.3-0.1,1.7-0.3c0.2-0.7,0.6-1.2,1.1-1.4c0.6-0.2,1-0.3,1.4-0.3c0.6-0.2,1-0.3,1.4-0.3c0.4,0.2,1,0.3,2,0.3
			c0.2,0.2,0.4,0.5,0.6,0.8c0.2,0.2,0.6,0.5,1.1,0.8c0.2,0.4,0.5,0.7,0.8,0.8c0.4,0.4,0.7,0.8,1.1,1.4c0.4,0.4,0.7,0.8,0.8,1.1
			l0.6,0.8c0.4,0.6,0.6,1.1,0.6,1.7c0.2,0.2,0.3,0.6,0.3,1.3c0,0.7,0,1.1,0,1.3v1.4c0,0.6,0,1,0,1.4c-0.2,0.9-0.4,1.7-0.6,2.3
			c-0.2,0.4-0.4,0.8-0.6,1.1c-0.2,0.4-0.4,0.7-0.6,0.8c-0.6,0.8-1,0.8-1.4,0.3c-0.2-0.2-0.5-0.3-0.8-0.3c-0.2,0-0.4,0-0.6,0
			c-0.2-0.2-0.4-0.5-0.6-0.8c-0.2,0-0.4-0.2-0.6-0.6c-0.2-0.4-0.4-0.7-0.6-0.8c-0.4-0.6-0.8-0.9-1.1-1.1c-0.4-0.2-0.7-0.5-0.8-0.8
			c-0.4-0.2-0.6-0.5-0.6-0.8c-0.2-0.2-0.4-0.5-0.6-0.8c-0.2-0.2-0.3-0.4-0.3-0.6c-0.4-0.7-0.7-1.3-0.8-1.7l-0.3-0.3
			c-0.2,0-0.3-0.1-0.3-0.3c-0.4-0.4-0.6-0.7-0.6-0.8c-0.2-0.2-0.5-0.5-0.8-0.8l-0.6-0.3c-0.2,0-0.4-0.1-0.6-0.3
			c-0.4-0.2-0.7-0.3-0.8-0.3c-0.2-0.2-0.5-0.4-0.8-0.6c-0.4,0-0.8,0.1-1.4,0.3c-0.6,0.2-0.9,0.3-1.1,0.3c-0.6-0.4-1.1-0.5-1.6-0.3
			c-0.5,0.2-0.9,0.5-1.3,0.8c-0.9-0.4-1.8-0.2-2.5,0.6c-0.6,0.4-1.4,0.7-2.5,0.8c-0.6,0.2-1.2,0.5-2,1c-0.8,0.5-1.3,0.8-1.7,1
			c-0.4,0.2-0.8,0.4-1.3,0.7c-0.5,0.3-0.8,0.4-1,0.4c-1.5,0.6-2.6,1.3-3.4,2.3c-0.9,0.9-1.9,1.8-2.8,2.5c-0.4,0.2-1,0.6-1.8,1.3
			c-0.8,0.7-1.6,1.2-2.1,1.6c-0.4,0.2-0.6,0.4-0.6,0.6c-0.4,1.1-1,1.7-2,1.7l-1.1,0.8c-0.8,0.9-1.9,2.1-3.4,3.4
			c0.2,0.2,0.3,0.4,0.3,0.6c-0.2,0-0.5,0-0.8,0c-0.2,0.2-0.6,0.5-1.1,1c-0.6,0.5-0.9,0.8-1.1,1c-1.9,1.5-3.3,3.1-4.2,4.8
			c-0.6,0.6-0.9,1-1.1,1.4c-0.2,0.2-0.6,0.6-1.1,1.1c-0.6,0.6-0.9,1-1.1,1.4c-0.9,0.9-2.4,2.6-4.2,5.1l-0.3,0.3
			c-0.2,0.4-0.4,0.7-0.6,0.8c-0.8,0.8-1.9,2.4-3.4,5.1l-0.6,0.6c-1.1,0.9-2.1,2.3-2.8,3.9c-1.1,2.4-1.7,4.1-1.7,5.1
			c0,0.4,0,0.8,0,1.1c0.4,0.2,0.9,0.4,1.7,0.6c0.6,0,1.3,0,2.3,0c0.9,0,1.7,0,2.3,0c0.7,0,2.5-0.5,5.4-1.4c0.6-0.2,1.4-0.5,2.5-1
			c1.1-0.5,1.9-0.8,2.3-1c0.4-0.2,1.1-0.5,2.1-0.8c1-0.4,1.8-0.7,2.4-0.8c0.9-0.4,2.9-1.3,5.9-2.8c3-1.3,4.7-2.1,5.1-2.3
			c0.7-0.4,2.3-1.3,4.5-2.8c3.8-2.3,5.8-3.5,6.2-3.7c3.2-1.7,5.7-3.5,7.6-5.4c0.2,0,1.2-0.7,3.1-2c2.8-2.1,4.6-3.5,5.4-4.2
			c0-0.2,0.7-0.7,2-1.7c0.2,0,0.8-0.4,2-1.3c1.1-0.8,2-1.5,2.5-1.8c2.3-1.5,4-1.8,5.4-0.8c0.2,0,0.4,0.1,0.6,0.3
			c-2.3,3.9-5.5,9.5-9.7,16.8c-4.2,7.2-7.3,12.5-9.2,15.6c-1.3,1.9-2.8,4.2-4.4,6.9c-1.6,2.7-3.1,5.4-4.7,8c-1.5,2.6-3,4.9-4.5,6.8
			c-4.1,6.2-8,12.1-11.6,17.8c0.2,0,0.3,0,0.4,0c0.1,0,0.2,0,0.4,0c0.4,0,1.9,0,4.5,0c0.7,0.2,1.5,0.3,2.3,0.3c0.4,0,1.1,0,2.3,0
			c0.4,0,1.1,0,2.3,0.1c1.1,0.1,2.1,0.2,2.8,0.4c0.9,0,2.9,0,5.9,0c0.6-0.8,1.5-1.2,2.8-1.4c3.4-0.2,7.7,0.3,13,1.4
			c1.9,0.7,2.9,1.1,3.1,1.1l5.6,2.5c2.8,1.5,4.3,2.3,4.5,2.3c0.4,0.4,0.9,0.7,1.6,1.1c0.7,0.4,1.2,0.7,1.6,0.8
			c1.3,0.7,2.1,1.2,2.3,1.4c2.3,1.7,3.5,2.5,3.7,2.5c5.1,5.4,8.3,9.1,9.6,11l1.1,1.7c0.6,0.7,0.9,1.3,1.1,1.7
			c1.1,1.9,1.7,2.9,1.7,3.1c0.6,1.1,1.1,2.3,1.7,3.4c0.2,0.9,0.4,1.4,0.6,1.4C617.8,859.7,617.9,860.2,618.1,861.2z M517.2,856.7
			c7.1-9.6,13.5-18.9,19.2-27.9c-0.6,0-1,0.1-1.4,0.3c-2.3,0.4-4,0.7-5.4,1.1c-1.9,0.2-3.6,0.4-5.1,0.6c-1.1,0-2.9,0.5-5.4,1.4
			c-3.4,0.9-6.9,1.8-10.4,2.5c-3,0.7-5.7,1.6-8.2,2.5c-1.5,0.7-4.1,1.8-7.9,3.1c-0.9,0.4-2.5,1-4.8,2c-0.6,0.2-1.4,0.5-2.5,1
			c-1.1,0.5-2,0.8-2.5,1c-1.1,0.4-2.3,0.8-3.7,1.4c-0.9,0.4-2.1,0.8-3.4,1.4c-2.6,1.3-4.9,2.5-6.8,3.7c-5.6,3.4-9.9,5.8-12.7,7.3
			c-2.1,1.1-5,2.9-8.7,5.2c-3.8,2.3-6.3,4-7.6,4.9c-1.1,0.6-2.2,1.3-3.1,2.3c-2.8,2.6-5.4,4.4-7.6,5.4c-0.4,0.2-2.1,1.5-5.1,3.9
			c-1.5,1.1-3.9,3-7,5.6c-0.7,0.7-3.1,2.8-7,6.2c0,0.2-0.1,0.5-0.3,0.8c-1.1,0.6-1.8,0.8-2,0.8c-1.9,1.9-3.6,3.5-5.1,4.8
			c-0.6,0.4-1.3,1-2.1,2c-0.8,0.9-1.5,1.6-1.8,2c-1.9,1.7-3.1,2.8-3.7,3.4c-0.9,1.1-2.6,2.9-5.1,5.4c-0.9,1.1-2.5,2.9-4.8,5.4
			c-0.4,0.6-1.4,2-3.1,4.2c-0.4,0.6-1,1.5-2,2.7c-0.9,1.2-1.6,2-2,2.4c-0.4,0.6-1,1.4-2,2.5c-0.9,1.1-1.7,2-2.3,2.5
			c-1.7,2.3-3,4-3.9,5.4c-4.7,6.9-8.9,14.1-12.7,21.4c-1.5,3.4-2.3,5.2-2.5,5.4c-0.7,1.7-1.5,3.5-2.3,5.4c-0.2,0.4-0.9,2.2-2.3,5.4
			c-1.3,3.6-2.2,7.1-2.5,10.7c-0.2,0.6-0.3,1.2-0.4,2c-0.1,0.7-0.1,1.3-0.1,1.7c-0.7,3.2-0.7,5.9,0.3,8.2c0.6,1.3,1.3,2.3,2.3,3.1
			c1.1,0.7,2.4,1.3,3.7,1.7c3,0.6,6.8,0.4,11.3-0.6c3.6-0.8,7.4-2.1,11.6-3.9c6.6-3,13.6-7.3,21.1-13c1.7-1.3,4.3-3.3,7.8-5.9
			c3.5-2.6,6.1-4.6,7.8-5.9c2.4-1.7,8.1-6.6,16.9-14.7c1.7-1.7,4-3.9,7-6.5c2.4-2.6,4.7-5,6.8-7c0.2,0,2.5-2.2,7-6.5
			c3.6-3.8,5.8-6.1,6.8-7c5.1-5.1,10.6-11.1,16.6-18c0.9-1.1,2.3-2.6,3.9-4.5c1.7-1.9,2.7-3.1,3.1-3.7c2.4-2.8,4.7-5.5,6.8-7.9
			c4.1-4.9,8.4-10.2,12.7-16.1C501.7,878,507.2,870.4,517.2,856.7z"/>
	</g>
	<g>
		<path class="st0" d="M341.1,562.6c1.7,1.2,1.8,3.2,0.4,5.8c-1.5,2.6-3.6,4.9-6.3,6.8c-2.6,1.6-5,2.4-7.2,2.4c-2.6,0-4.5-1-5.7-3.1
			c-3.7-7.3-7.3-14.2-10.9-20.6c-0.8-0.8-1.7-0.9-2.9-0.5c-1.2,0.4-2.3,1-3.3,1.6c-15.2,9.2-28.5,15.8-39.8,19.8
			c-11.3,4-20.9,6-28.7,6c-6.2,0-11.1-0.9-14.9-2.6c-10.1-4.6-13.6-13.1-10.5-25.4c3.1-10.8,11.2-22.1,24.2-34
			c13-11.9,29.7-23.6,50-35.3c1.9-1,3.3-2,4.1-2.9c0.9-0.9,1.4-1.9,1.7-3.1c1.7-7.8,4.9-16,9.7-24.8c0.2-0.3,0.4-0.6,0.6-1
			c0.3-0.5,0.6-1,1-1.6c7-11.6,16.5-22.5,28.5-32.7c12-10.1,22.5-15.8,31.7-16.9c5.4-0.2,9.3,1.5,11.7,5c2.4,3.5,3.3,8,2.6,13.3
			c-0.2,3.3-2.2,8.1-6.2,14.4c-3.9,6.3-11.2,14-21.8,23.1c-10.6,9.1-26.1,19.5-46.6,31.1c-2.1,1.3-3,2.7-2.8,4.3
			c2,12.9,7.6,27.2,16.9,43c0.6,0.9,1.2,2,1.8,3.1c0.4,0.6,0.8,0.9,1.3,1c0.5,0.1,1.1,0,1.6-0.1c0.6-0.2,1-0.4,1.4-0.6
			c6.9-4.6,13.9-9.7,21-15c1.8-1.4,3.3-2.9,4.4-4.4c1.1-1.3,2.1-2.2,2.8-2.7c0.8-0.5,1.5-0.1,2.1,1c0.9,1.7,0.8,3.2-0.1,4.4
			c-0.9,1.2-2.6,2.6-4.8,4.1c-0.3,0.3-0.6,0.5-0.9,0.7c-7.4,5.5-14.4,10.5-21,15c-1.4,0.9-2.3,1.9-2.5,2.9c-0.2,1-0.1,1.8,0.5,2.5
			C328.5,552.7,334.1,558,341.1,562.6z M304.2,550c1.3-0.9,2.2-1.7,2.5-2.4c0.3-0.8,0.4-1.4,0.1-1.8c-4.7-8.4-8.6-16.6-11.6-24.4
			c-3-7.9-4.9-15.8-5.5-23.7c-0.2-1.9-1.5-2-4-0.4c-22.3,13.1-39,25-49.9,35.9c-10.9,10.8-15.6,20.8-14.1,29.9
			c1.4,6.8,5.9,10.6,13.4,11.5s17.3-0.9,29.2-5.1C276.2,565,289.5,558.6,304.2,550z M307.9,452.6c-2.2,3.9-3.9,7.6-5.3,11.2
			c-1.1,3.2-2,6.4-2.7,9.5c-0.1,0.7,0,1.1,0.2,1.3c0.2,0.2,0.5,0.2,0.9,0.1c0.4-0.1,0.8-0.2,1.1-0.4c15-8.5,28-17.6,39.3-27.1
			c11.2-9.6,19-18,23.3-25.3c4.3-7.3,3.5-11.9-2.5-13.8c-5.2-0.7-13,2.9-23.4,10.6c-10.4,7.7-19.4,16.8-26.8,27.2
			C310.5,448.1,309.1,450.3,307.9,452.6z"/>
	</g>
</g>
</svg>
